<svg width="14" height="14" viewBox="0 0 14 14" fill="none" xmlns="http://www.w3.org/2000/svg">
<g clip-path="url(#clip0)">
<path d="M8.8527 0C8.71049 0.341059 8.4685 0.539 8.14436 0.803961C7.59251 1.255 6.90577 1.81634 6.48047 3.26342L7.41141 3.53702C7.75212 2.37776 8.26369 1.95962 8.75842 1.55523C9.20913 1.1868 9.6737 0.806914 9.8703 0H8.8527Z" fill="#828587"/>
<path d="M8.03739 0.355633C7.93621 0.250277 7.81486 0.12384 7.70292 0H6.50586C6.66522 0.327414 6.97522 0.650371 7.33744 1.02763C7.95639 1.67229 8.72675 2.47461 8.72675 3.35825H9.69705C9.69705 2.08422 8.7378 1.08514 8.03739 0.355633Z" fill="#828587"/>
<path d="M3.56776 7.03906C2.53857 9.13587 2.52816 10.1224 2.46283 11.2952C2.39751 12.4679 2.65112 13.1024 3.55327 13.3919L4.04095 13.5484C4.94313 13.8378 5.51855 13.4692 6.14768 12.4774C6.7768 11.4855 7.34227 10.677 7.72503 8.37281L3.56776 7.03906Z" fill="#828587"/>
<path d="M3.30961 11.8597C3.37494 10.6869 3.38535 9.70038 4.41455 7.60357L7.67674 8.65016C7.69314 8.56009 7.70925 8.46786 7.72505 8.37281L3.56776 7.03906C2.53857 9.13586 2.52816 10.1224 2.46283 11.2952C2.39751 12.4679 2.65112 13.1024 3.55327 13.3919L3.5883 13.4031C3.34256 13.0468 3.27141 12.5454 3.30961 11.8597Z" fill="#828587"/>
<path d="M7.41141 3.53697C7.54652 3.0773 7.70856 2.73443 7.88566 2.46247C7.73188 2.37573 7.56894 2.30355 7.39804 2.24875C7.24866 2.20082 7.096 2.16699 6.94154 2.14648C6.7705 2.44861 6.61281 2.81307 6.48047 3.26337L7.41141 3.53697Z" fill="#828587"/>
<path d="M5.2753 9.77614L4.74321 9.60543C4.23273 9.44167 3.81202 9.0681 3.58895 8.58059C3.36607 8.09348 3.35828 7.53152 3.5676 7.03848L4.83747 3.99444C4.83782 3.99354 4.83823 3.99269 4.83859 3.99179C5.02559 3.55213 5.36786 3.20051 5.80229 3.0017C6.23679 2.80293 6.72657 2.77384 7.18151 2.91977C7.63646 3.06573 8.01796 3.37436 8.25569 3.78879C8.49344 4.20323 8.56724 4.68834 8.46355 5.15472C8.46336 5.15567 8.46317 5.15657 8.46293 5.15753L7.72486 8.37217C7.60827 8.89493 7.275 9.34752 6.81035 9.61404C6.34531 9.88081 5.78578 9.9399 5.2753 9.77614Z" fill="white"/>
<path d="M5.7552 4.06409C6.02845 3.72156 6.48925 3.57221 6.92721 3.7127C7.36285 3.85248 7.64996 4.23863 7.67561 4.67334L7.67605 4.68034C7.67474 4.6819 7.67321 4.68362 7.67187 4.68518L7.42309 5.4689L6.04983 6.76863L4.39258 7.22147L5.21571 5.24835L5.66658 5.34063L5.7552 4.06409Z" fill="#828587"/>
<path d="M6.59612 8.74696C6.53604 8.80269 6.46927 8.85226 6.39596 8.89432C6.12939 9.04722 5.82141 9.07976 5.52878 8.98586L4.9967 8.81516C4.70409 8.72129 4.47249 8.51569 4.34466 8.23621C4.3095 8.15932 4.28404 8.08016 4.26758 7.99988L4.54717 7.56713L5.32893 7.08285L7.47978 5.54102L7.42556 5.95814L7.4231 5.96897L6.95055 8.02727L6.94718 8.04188L6.43088 7.76073L6.59612 8.74696Z" fill="#828587"/>
<path d="M7.67596 4.68164C7.68102 4.77792 7.67344 4.87646 7.65159 4.97526L7.42579 5.95876C7.33011 6.05181 7.22905 6.14718 7.12293 6.24371C6.14853 7.12986 5.19024 7.71901 4.2678 8.00052C4.22446 7.78901 4.24592 7.56996 4.33312 7.36497C4.33348 7.36406 4.33386 7.36319 4.33422 7.36231L4.39243 7.22283C5.86446 6.64366 7.14106 5.30163 7.67596 4.68164Z" fill="#828587"/>
<path d="M5.54289 6.60663C5.75051 6.46789 5.94963 6.3205 6.13819 6.16992C5.89896 5.32546 5.79677 4.52935 5.75436 4.06445C5.69423 4.13981 5.64307 4.22439 5.60334 4.31741L5.21484 5.24871C5.23852 5.38007 5.26524 5.51641 5.2954 5.65668C5.36723 5.99038 5.44981 6.30705 5.54289 6.60663Z" fill="#828587"/>
<path d="M6.9137 8.19128C6.91392 8.19032 6.91411 8.18939 6.91436 8.18849L6.94818 8.04119C6.71316 7.67864 6.52343 7.27819 6.36981 6.87109C6.17332 7.02006 5.97773 7.15664 5.7832 7.28068C6.01029 7.8453 6.28204 8.33497 6.59712 8.74625C6.75536 8.59941 6.86533 8.40874 6.9137 8.19128Z" fill="#828587"/>
<path d="M7.02953 7.94531C6.69008 10.2563 6.98154 11.1989 7.27762 12.3355C7.57367 13.4722 8.00901 13.9989 8.95645 13.9989H9.4686C10.4161 13.9989 10.8514 13.4722 11.1475 12.3355C11.4435 11.1989 11.735 10.2563 11.3955 7.94531H7.02953Z" fill="#828587"/>
<path d="M8.40665 12.3375C8.1106 11.2008 7.81914 10.2583 8.15856 7.94727H7.02954C6.69009 10.2583 6.98152 11.2008 7.27763 12.3375C7.57368 13.4741 8.00902 14.0008 8.95645 14.0008H9.4686C9.57817 14.0008 9.68057 13.9935 9.77701 13.9792C9.0395 13.8705 8.66847 13.3427 8.40665 12.3375Z" fill="#828587"/>
<path d="M9.44616 2.22537C9.36908 2.21854 9.29143 2.21484 9.21336 2.21484C8.93984 2.21484 8.67141 2.25786 8.41602 2.33948C8.60425 2.66265 8.72825 3.00379 8.72825 3.35806H9.69855C9.69849 2.95266 9.60115 2.57521 9.44616 2.22537Z" fill="#828587"/>
<path d="M9.49174 10.0309H8.93295C8.39682 10.0309 7.8821 9.80368 7.52078 9.40761C7.15976 9.01189 6.98069 8.47915 7.02933 7.94573L7.3086 4.65928C7.30868 4.65833 7.30876 4.65737 7.30884 4.65641C7.35259 4.18063 7.57107 3.74127 7.92402 3.41927C8.277 3.09727 8.73449 2.91992 9.21229 2.91992C9.69007 2.91992 10.1476 3.09727 10.5006 3.41927C10.8536 3.74127 11.072 4.18063 11.1158 4.65641C11.1159 4.65737 11.116 4.65833 11.116 4.65928L11.3953 7.9457C11.444 8.4791 11.2649 9.01183 10.9039 9.40761C10.5426 9.80365 10.0279 10.0309 9.49174 10.0309Z" fill="white"/>
<path d="M8.20211 4.4446C8.35766 4.03496 8.75079 3.75195 9.21076 3.75195C9.66828 3.75195 10.0596 4.03195 10.2168 4.43804L10.2194 4.44454C10.2186 4.44643 10.2177 4.44853 10.2169 4.45042L10.2194 5.2727L9.30884 6.92984L7.86914 7.8673L8.05016 5.73705L8.50767 5.68721L8.20211 4.4446Z" fill="#828587"/>
<path d="M10.4338 8.64687C10.3936 8.71827 10.3452 8.78589 10.2882 8.84834C10.0811 9.07535 9.79778 9.20042 9.49041 9.20042H8.93161C8.62432 9.20042 8.34099 9.0754 8.13386 8.84834C8.07688 8.78589 8.02845 8.71824 7.98828 8.64687L8.12229 8.14941L8.71874 7.44943L10.2958 5.32422L10.3716 5.73799L10.3725 5.74906L10.5513 7.85336L10.5526 7.86826L9.97508 7.75825L10.4338 8.64687Z" fill="#828587"/>
<path d="M10.2196 4.44531C10.2538 4.53544 10.2767 4.63161 10.2861 4.73231L10.3715 5.73777C10.3088 5.85562 10.2418 5.9773 10.1702 6.10163C9.51309 7.24304 8.78058 8.0968 7.98821 8.64665C7.88237 8.4585 7.83586 8.24336 7.85625 8.02155C7.85634 8.02056 7.85642 8.01963 7.8565 8.01868L7.8693 7.86807C9.09402 6.86696 9.89965 5.19907 10.2196 4.44531Z" fill="#828587"/>
<path d="M8.77793 6.93056C8.93327 6.73502 9.07784 6.53386 9.21139 6.33288C8.7256 5.6019 8.38514 4.87505 8.20273 4.44531C8.16852 4.53544 8.14561 4.63161 8.13623 4.73231L8.05078 5.73777C8.11348 5.85562 8.18053 5.9773 8.25211 6.10163C8.42238 6.39741 8.59779 6.67372 8.77793 6.93056Z" fill="#828587"/>
<path d="M10.5656 8.02065C10.5655 8.01966 10.5655 8.01873 10.5654 8.01778L10.5526 7.86717C10.2181 7.59373 9.91504 7.27042 9.64439 6.92969C9.5028 7.13157 9.35829 7.32139 9.21094 7.49893C9.59963 7.96719 10.008 8.35041 10.4337 8.64581C10.5395 8.45763 10.586 8.24252 10.5656 8.02065Z" fill="#828587"/>
</g>
<defs>
<clipPath id="clip0">
<rect width="14" height="14" fill="white"/>
</clipPath>
</defs>
</svg>
