<svg width="65" height="65" viewBox="0 0 65 65" fill="none" xmlns="http://www.w3.org/2000/svg">
<path d="M5.24183 57.6386H32.5V55.5414H5.24183C3.50489 55.5414 2.09668 54.1332 2.09668 52.3963V6.26722C2.09668 4.52976 3.50489 3.12207 5.24183 3.12207H51.3709C53.1086 3.12207 54.516 4.52976 54.516 6.26722V30.38H56.6132V6.26722C56.6098 3.37355 54.2648 1.02881 51.3709 1.02539H5.24183C2.34868 1.02881 0.00367885 3.37355 0 6.26722V52.3963C0.00367885 55.29 2.34868 57.6347 5.24183 57.6386Z" fill="#DB1E39"/>
<path d="M4.19336 5.21875H6.28977V7.31516H4.19336V5.21875Z" fill="#DB1E39"/>
<path d="M8.38867 5.21875H10.4859V7.31516H8.38867V5.21875Z" fill="#DB1E39"/>
<path d="M12.5801 5.21875H14.677V7.31516H12.5801V5.21875Z" fill="#DB1E39"/>
<path d="M4.19336 9.41211H52.4188V11.5093H4.19336V9.41211Z" fill="#DB1E39"/>
<path d="M14.9846 13.9141L12.3216 16.577C10.0707 15.0868 7.0564 15.5441 5.3481 17.6347C3.64007 19.7251 3.79327 22.7701 5.70206 24.6786C7.61059 26.588 10.6559 26.7412 12.7465 25.0329C14.8369 23.3248 15.2944 20.31 13.8039 18.0596L16.4666 15.3966L14.9846 13.9141ZM9.43504 24.0906C7.69836 24.0906 6.29015 22.6826 6.29015 20.9457C6.29015 19.2085 7.69836 17.8008 9.43504 17.8008C9.90278 17.8023 10.3629 17.9096 10.7825 18.1148L8.69428 20.2033L10.1763 21.6859L12.2662 19.5987C12.4714 20.0181 12.5789 20.4782 12.5805 20.9457C12.5805 22.6826 11.1728 24.0906 9.43504 24.0906Z" fill="#DB1E39"/>
<path d="M17.8223 17.7988H35.6444V19.8953H17.8223V17.7988Z" fill="#DB1E39"/>
<path d="M17.8223 21.9941H25.1608V24.0906H17.8223V21.9941Z" fill="#DB1E39"/>
<path d="M27.2578 21.9941H41.9349V24.0906H27.2578V21.9941Z" fill="#DB1E39"/>
<path d="M37.7402 17.7988H48.2242V19.8953H37.7402V17.7988Z" fill="#DB1E39"/>
<path d="M14.9846 26.4941L12.3216 29.1571C10.0707 27.6669 7.0564 28.1241 5.3481 30.2148C3.64007 32.3054 3.79327 35.3502 5.70206 37.2592C7.61059 39.168 10.6559 39.3212 12.7465 37.6129C14.8369 35.9046 15.2944 32.8909 13.8039 30.6397L16.4666 27.9767L14.9846 26.4941ZM9.43504 36.6709C7.69836 36.6709 6.29015 35.2627 6.29015 33.5257C6.29015 31.7885 7.69836 30.3803 9.43504 30.3803C9.90278 30.3822 10.3629 30.4896 10.7825 30.6949L8.69428 32.7839L10.1763 34.266L12.2662 32.1785C12.4714 32.5981 12.5789 33.0583 12.5805 33.5257C12.5805 35.2627 11.1728 36.6709 9.43504 36.6709Z" fill="#DB1E39"/>
<path d="M17.8223 30.3809H35.6444V32.4778H17.8223V30.3809Z" fill="#DB1E39"/>
<path d="M17.8223 34.5742H25.1608V36.6709H17.8223V34.5742Z" fill="#DB1E39"/>
<path d="M27.2578 34.5742H35.6445V36.6709H27.2578V34.5742Z" fill="#DB1E39"/>
<path d="M37.7402 30.3809H41.9336V32.4778H37.7402V30.3809Z" fill="#DB1E39"/>
<path d="M14.9846 39.0742L12.3216 41.7372C10.0707 40.247 7.0564 40.7042 5.3481 42.7949C3.64007 44.8855 3.79327 47.9303 5.70206 49.8394C7.61059 51.7484 10.6559 51.9011 12.7465 50.193C14.8369 48.4847 15.2944 45.4707 13.8039 43.2195L16.4666 40.5568L14.9846 39.0742ZM9.43504 49.251C7.69836 49.251 6.29015 47.8428 6.29015 46.1058C6.29015 44.3686 7.69836 42.9607 9.43504 42.9607C9.90278 42.9622 10.3629 43.0695 10.7825 43.275L8.69428 45.364L10.1763 46.8461L12.2662 44.7586C12.4714 45.1782 12.5789 45.6386 12.5805 46.1058C12.5805 47.8428 11.1728 49.251 9.43504 49.251Z" fill="#DB1E39"/>
<path d="M17.8223 42.9609H31.4511V45.0582H17.8223V42.9609Z" fill="#DB1E39"/>
<path d="M17.8223 47.1543H25.1608V49.251H17.8223V47.1543Z" fill="#DB1E39"/>
<path d="M27.2578 47.1543H31.4512V49.251H27.2578V47.1543Z" fill="#DB1E39"/>
<path d="M49.2748 63.9286C57.9603 63.9286 65.0003 56.8873 65.0003 48.2026C65.0003 39.5171 57.9603 32.4766 49.2748 32.4766C40.5894 32.4766 33.5488 39.5171 33.5488 48.2026C33.5591 56.8834 40.5936 63.9181 49.2748 63.9286ZM49.2748 34.5735C56.8015 34.5735 62.9039 40.6754 62.9039 48.2026C62.9039 55.7298 56.8015 61.8314 49.2748 61.8314C41.7474 61.8314 35.6452 55.7298 35.6452 48.2026C35.6542 40.6791 41.7508 34.5819 49.2748 34.5735Z" fill="#DB1E39"/>
<path d="M42.8787 48.7825L41.002 49.7196L43.0989 53.9132C43.2492 54.2149 43.5362 54.4259 43.8691 54.4797C43.9232 54.4881 43.9774 54.4926 44.0318 54.4934C44.3095 54.4934 44.5762 54.3828 44.7733 54.1862L57.3534 41.6056L55.8714 40.123L44.3187 51.6751L42.8787 48.7825Z" fill="#DB1E39"/>
</svg>
