<svg width="18" height="18" viewBox="0 0 18 18" fill="none" xmlns="http://www.w3.org/2000/svg">
<path d="M0.932232 2.79668C0.417376 2.28183 0.417374 1.44709 0.932228 0.932233C1.44708 0.417383 2.28182 0.417381 2.79667 0.93223L9.00001 7.13553L15.2033 0.932221C15.7182 0.41737 16.5529 0.41737 17.0678 0.932222C17.5826 1.44707 17.5826 2.28182 17.0678 2.79667L10.8645 8.99997L17.0678 15.2033C17.5826 15.7182 17.5826 16.5529 17.0678 17.0678C16.5529 17.5826 15.7182 17.5826 15.2033 17.0678L9.00001 10.8644L2.79667 17.0678C2.28182 17.5826 1.44707 17.5826 0.932222 17.0678C0.41737 16.5529 0.417372 15.7182 0.932224 15.2033L7.13558 8.99997L0.932232 2.79668Z" fill="white"/>
</svg>
