<svg width="65" height="65" viewBox="0 0 65 65" fill="none" xmlns="http://www.w3.org/2000/svg">
<path d="M48.1416 39.6405L47.4732 43.5364C47.412 43.893 47.5586 44.2533 47.8512 44.466C48.1438 44.6786 48.5315 44.7067 48.852 44.5383L52.351 42.6989L55.8499 44.5383C55.989 44.6114 56.1408 44.6474 56.2919 44.6474C56.4891 44.6474 56.6851 44.5862 56.8506 44.4658C57.1433 44.2532 57.2899 43.893 57.2286 43.5364L56.5604 39.6404L59.3911 36.881C59.6501 36.6286 59.7432 36.2509 59.6315 35.9069C59.5197 35.5629 59.2223 35.3121 58.8644 35.2602L54.9525 34.6916L53.203 31.147C53.0429 30.8226 52.7125 30.6172 52.3508 30.6172C51.989 30.6172 51.6587 30.8226 51.4985 31.147L49.7488 34.6916L45.8371 35.2602C45.4792 35.3121 45.1817 35.563 45.07 35.9069C44.9582 36.2508 45.0515 36.6285 45.3103 36.881L48.1416 39.6405ZM50.517 36.5007C50.8265 36.4558 51.0941 36.2613 51.2324 35.9808L52.351 33.7146L53.4694 35.9808C53.6079 36.2613 53.8753 36.4557 54.1848 36.5007L56.6856 36.8641L54.876 38.6282C54.6519 38.8465 54.5498 39.161 54.6028 39.4693L55.0299 41.9599L52.7933 40.7841C52.6548 40.7113 52.503 40.675 52.351 40.675C52.1992 40.675 52.0473 40.7113 51.9088 40.7841L49.672 41.9599L50.0993 39.4694C50.1523 39.161 50.05 38.8465 49.8261 38.6281L48.0164 36.8641L50.517 36.5007Z" fill="#DB1E39"/>
<path d="M8.10257 30.119L7.43418 34.0149C7.37298 34.3715 7.51959 34.7319 7.81216 34.9445C8.10473 35.1571 8.49258 35.1853 8.8129 35.0168L12.312 33.1774L15.8108 35.0168C15.9499 35.0899 16.1017 35.1259 16.2529 35.1259C16.45 35.1259 16.646 35.0647 16.8115 34.9443C17.1042 34.7317 17.2508 34.3715 17.1895 34.0149L16.5214 30.1189L19.352 27.3596C19.611 27.1072 19.7042 26.7294 19.5924 26.3854C19.4806 26.0414 19.1833 25.7906 18.8253 25.7387L14.9134 25.1703L13.164 21.6255C13.0038 21.3011 12.6735 21.0957 12.3117 21.0957C11.95 21.0957 11.6196 21.3011 11.4595 21.6255L9.70975 25.1702L5.79799 25.7387C5.44017 25.7906 5.14265 26.0415 5.0309 26.3854C4.91914 26.7293 5.0124 27.107 5.27126 27.3596L8.10257 30.119ZM10.478 26.9793C10.7874 26.9344 11.055 26.74 11.1934 26.4594L12.312 24.1932L13.4303 26.4594C13.5688 26.74 13.8363 26.9343 14.1457 26.9793L16.6466 27.3427L14.8369 29.1069C14.6129 29.3252 14.5107 29.6397 14.5637 29.948L14.9908 32.4386L12.7542 31.2627C12.6157 31.19 12.4639 31.1536 12.312 31.1536C12.1602 31.1536 12.0082 31.19 11.8698 31.2627L9.63296 32.4386L10.0602 29.9481C10.1132 29.6397 10.0109 29.3252 9.78704 29.1069L7.97738 27.3427L10.478 26.9793Z" fill="#DB1E39"/>
<path d="M27.0289 6.30427V7.45948C27.0289 10.1719 29.0007 12.431 31.5858 12.8829V15.5484C29.2571 15.9276 27.4109 17.759 27.009 20.0801H25.6789C24.4533 20.0801 24.4533 21.9807 25.6789 21.9807H39.3224C40.5481 21.9807 40.5481 20.0801 39.3224 20.0801H37.9535C37.5579 17.7958 35.7633 15.9861 33.4866 15.5681V12.8827C36.0717 12.431 38.0436 10.1718 38.0436 7.45935V6.29426C39.2568 6.13106 40.2211 5.64374 40.9164 4.83787C42.3234 3.207 42.0017 0.907996 41.9874 0.811063C41.9182 0.345155 41.5183 0 41.0472 0H37.0931H37.0475H27.9793C27.975 0 27.971 0.000633544 27.9667 0.000633544C27.9624 0.000633544 27.9583 0 27.954 0H23.9542C23.4831 0 23.0832 0.345155 23.0141 0.811063C22.9998 0.908122 22.6781 3.207 24.0851 4.83787C24.7939 5.6597 25.7818 6.15096 27.0289 6.30427ZM36.0104 20.0802H28.952C29.3714 18.5245 30.7947 17.376 32.4813 17.376C34.1677 17.376 35.591 18.5243 36.0104 20.0802ZM39.4771 3.59638C39.1419 3.98499 38.6614 4.24272 38.0434 4.36791V1.90063H40.1131C40.0684 2.41875 39.917 3.0865 39.4771 3.59638ZM28.9295 1.90063H36.1428V5.29592C36.1386 5.33216 36.1358 5.36891 36.1358 5.40641C36.1358 5.44392 36.1385 5.48054 36.1428 5.5169V7.45948C36.1428 9.44805 34.5249 11.066 32.5362 11.066C30.5475 11.066 28.9295 9.44805 28.9295 7.45948V1.90063ZM27.0289 1.90063V4.38109C26.3808 4.26249 25.8784 4.00311 25.5308 3.60411C25.0859 3.09372 24.9334 2.42153 24.8884 1.90063H27.0289Z" fill="#DB1E39"/>
<path d="M63.9871 63.0986H62.5195V50.6467C62.5195 49.2994 61.4237 48.2033 60.0768 48.2033H43.7252C43.4916 48.2033 43.2662 48.2383 43.052 48.2999V28.2363C43.052 26.889 41.9565 25.793 40.6098 25.793H24.2584C22.9119 25.793 21.8164 26.889 21.8164 28.2363V38.3377C21.6418 38.2979 21.461 38.2749 21.2746 38.2749H4.92318C3.57626 38.2749 2.48049 39.3707 2.48049 40.7178V48.1469C2.48049 49.3726 4.38112 49.3726 4.38112 48.1469V40.7178C4.38112 40.4188 4.62427 40.1756 4.92318 40.1756H21.2745C21.5732 40.1756 21.8163 40.4188 21.8163 40.7178V63.0986H4.38112V52.8352C4.38112 51.6095 2.48049 51.6095 2.48049 52.8352V63.0986H1.01282C0.487862 63.0986 0.0625 63.5239 0.0625 64.0489C0.0625 64.5739 0.487862 64.9992 1.01282 64.9992H63.9871C64.5121 64.9992 64.9374 64.5739 64.9374 64.0489C64.9374 63.5239 64.5119 63.0986 63.9871 63.0986ZM23.7169 63.0986V40.7178V28.2363C23.7169 27.9371 23.9598 27.6936 24.2583 27.6936H40.6098C40.9084 27.6936 41.1514 27.9371 41.1514 28.2363V63.0987H23.7169V63.0986ZM43.1836 63.0986V50.6467C43.1836 50.3475 43.4266 50.104 43.7252 50.104H60.0766C60.3755 50.104 60.6187 50.3475 60.6187 50.6467V63.0986H43.1836Z" fill="#DB1E39"/>
</svg>
