<svg width="65" height="65" viewBox="0 0 65 65" fill="none" xmlns="http://www.w3.org/2000/svg">
<path d="M43.0251 49.1092H21.9792C21.8294 49.1098 21.682 49.0721 21.5509 48.9997C21.4198 48.9273 21.3094 48.8226 21.2302 48.6955C21.151 48.5684 21.1056 48.4232 21.0983 48.2736C21.0911 48.124 21.1221 47.975 21.1886 47.8409C22.0946 46.4364 23.3234 45.2691 24.7724 44.4363C25.9432 43.6624 26.8994 42.6052 27.5522 41.3629C28.205 40.1205 28.5333 38.7333 28.5064 37.3302C28.3026 31.9598 23.5471 27.2288 23.4996 27.1805C23.4746 27.1562 23.4512 27.1304 23.4294 27.1032C22.8528 26.3782 22.3358 25.6077 21.8834 24.7992C18.9646 19.6713 17.7384 12.5019 17.228 7.39593C16.9382 4.60971 16.9004 2.72998 16.8986 2.65268C16.8962 2.53623 16.9169 2.42046 16.9596 2.3121C17.0024 2.20373 17.0662 2.10495 17.1474 2.02149C17.2287 1.93804 17.3257 1.87157 17.4329 1.82597C17.5401 1.78036 17.6553 1.75653 17.7717 1.75586H28.1366C28.3696 1.75586 28.593 1.8484 28.7577 2.01313C28.9224 2.17786 29.015 2.40128 29.015 2.63424C29.015 2.8672 28.9224 3.09062 28.7577 3.25535C28.593 3.42007 28.3696 3.51262 28.1366 3.51262H18.6844C18.723 4.31985 18.8047 5.62072 18.9707 7.21586C19.3783 11.2634 20.4973 18.8105 23.41 23.9314C23.8099 24.644 24.2655 25.324 24.7724 25.9648C25.2994 26.4919 30.0427 31.3959 30.2667 37.2617C30.3043 38.9636 29.9109 40.6473 29.123 42.1563C28.3352 43.6654 27.1785 44.9506 25.7606 45.8926C25.0914 46.3346 24.4537 46.8224 23.8519 47.3525H41.1568C40.5559 46.8229 39.9191 46.3357 39.2507 45.8944C37.832 44.9524 36.6747 43.6668 35.8866 42.1573C35.0984 40.6477 34.7049 38.9633 34.7429 37.2608C34.9651 31.3959 39.7119 26.4884 40.2363 25.9648C40.7415 25.3242 41.1953 24.6445 41.5934 23.9323C44.5069 18.8122 45.626 11.2634 46.0336 7.21937C46.1996 5.62424 46.2813 4.32072 46.3199 3.51262H42.138C41.905 3.51262 41.6816 3.42007 41.5168 3.25535C41.3521 3.09062 41.2596 2.8672 41.2596 2.63424C41.2596 2.40128 41.3521 2.17786 41.5168 2.01313C41.6816 1.8484 41.905 1.75586 42.138 1.75586H47.2325C47.3493 1.75584 47.4649 1.7791 47.5726 1.82428C47.6803 1.86946 47.7778 1.93566 47.8596 2.019C47.9414 2.10234 48.0058 2.20116 48.0489 2.30966C48.0921 2.41816 48.1131 2.53418 48.1109 2.65093C48.1109 2.7291 48.0714 4.60883 47.7815 7.39417C47.2668 12.5002 46.0406 19.6669 43.1209 24.7966C42.6687 25.6044 42.152 26.3743 41.5758 27.0988C41.554 27.126 41.5305 27.1518 41.5055 27.1761C41.4572 27.2236 36.7017 31.9554 36.4988 37.3249C36.4708 38.7291 36.7984 40.1176 37.4511 41.3613C38.1038 42.6049 39.0603 43.6633 40.2319 44.438C41.6792 45.2707 42.9065 46.4374 43.8113 47.8409C43.8778 47.975 43.9088 48.124 43.9016 48.2736C43.8943 48.4232 43.8489 48.5684 43.7697 48.6955C43.6904 48.8226 43.5801 48.9273 43.449 48.9997C43.3179 49.0721 43.1705 49.1098 43.0207 49.1092H43.0251Z" fill="#DB1E39"/>
<path d="M36.8646 3.51262H33.4038C33.1708 3.51262 32.9474 3.42007 32.7827 3.25535C32.6179 3.09062 32.5254 2.8672 32.5254 2.63424C32.5254 2.40128 32.6179 2.17786 32.7827 2.01313C32.9474 1.8484 33.1708 1.75586 33.4038 1.75586H36.8646C37.0976 1.75586 37.321 1.8484 37.4857 2.01313C37.6504 2.17786 37.743 2.40128 37.743 2.63424C37.743 2.8672 37.6504 3.09062 37.4857 3.25535C37.321 3.42007 37.0976 3.51262 36.8646 3.51262Z" fill="#DB1E39"/>
<path d="M43.0201 53.3568H21.9741C21.7411 53.3568 21.5177 53.2642 21.353 53.0995C21.1882 52.9348 21.0957 52.7113 21.0957 52.4784V48.2358C21.0957 48.0028 21.1882 47.7794 21.353 47.6147C21.5177 47.45 21.7411 47.3574 21.9741 47.3574H43.0201C43.253 47.3574 43.4764 47.45 43.6412 47.6147C43.8059 47.7794 43.8984 48.0028 43.8984 48.2358V52.4784C43.8984 52.7113 43.8059 52.9348 43.6412 53.0995C43.4764 53.2642 43.253 53.3568 43.0201 53.3568ZM22.8525 51.6H42.1417V49.1142H22.8525V51.6Z" fill="#DB1E39"/>
<path d="M44.7826 63.2423H19.8841C19.4446 63.2418 19.0233 63.0671 18.7125 62.7563C18.4018 62.4456 18.227 62.0243 18.2266 61.5848V53.2552C18.2268 52.8156 18.4015 52.3942 18.7123 52.0834C19.0231 51.7726 19.4445 51.5979 19.8841 51.5977H44.7826C45.2221 51.5981 45.6434 51.7729 45.9541 52.0836C46.2649 52.3944 46.4396 52.8157 46.4401 53.2552V61.5848C46.4394 62.0242 46.2646 62.4454 45.9539 62.7561C45.6432 63.0668 45.222 63.2416 44.7826 63.2423ZM19.9833 61.4856H44.6834V53.3544H19.9833V61.4856Z" fill="#DB1E39"/>
<path d="M35.4177 58.2997H29.5835C29.3505 58.2997 29.1271 58.2072 28.9623 58.0425C28.7976 57.8777 28.7051 57.6543 28.7051 57.4214C28.7051 57.1884 28.7976 56.965 28.9623 56.8002C29.1271 56.6355 29.3505 56.543 29.5835 56.543H35.4177C35.6506 56.543 35.874 56.6355 36.0388 56.8002C36.2035 56.965 36.296 57.1884 36.296 57.4214C36.296 57.6543 36.2035 57.8777 36.0388 58.0425C35.874 58.2072 35.6506 58.2997 35.4177 58.2997Z" fill="#DB1E39"/>
<path d="M36.191 20.9343C36.0485 20.9342 35.9081 20.8999 35.7817 20.8342L32.5018 19.1073L29.2184 20.8342C29.0734 20.9105 28.9098 20.9446 28.7464 20.9328C28.5829 20.921 28.426 20.8637 28.2934 20.7674C28.1608 20.6711 28.0578 20.5396 27.9961 20.3878C27.9343 20.236 27.9162 20.0699 27.9439 19.9084L28.5702 16.2508L25.914 13.6622C25.7965 13.5478 25.7134 13.4029 25.6741 13.2437C25.6348 13.0846 25.6407 12.9176 25.6914 12.7617C25.742 12.6058 25.8353 12.4671 25.9606 12.3614C26.0859 12.2558 26.2383 12.1873 26.4006 12.1637L30.0722 11.6297L31.7113 8.30325C31.792 8.16628 31.907 8.05275 32.045 7.97388C32.1831 7.895 32.3393 7.85352 32.4983 7.85352C32.6573 7.85352 32.8135 7.895 32.9515 7.97388C33.0895 8.05275 33.2046 8.16628 33.2853 8.30325L34.9279 11.6297L38.5995 12.1637C38.7617 12.1873 38.9141 12.2558 39.0395 12.3614C39.1648 12.4671 39.2581 12.6058 39.3087 12.7617C39.3593 12.9176 39.3653 13.0846 39.326 13.2437C39.2866 13.4029 39.2035 13.5478 39.0861 13.6622L36.4334 16.2491L37.0597 19.9066C37.0812 20.0326 37.0749 20.1617 37.0413 20.285C37.0077 20.4083 36.9477 20.5228 36.8653 20.6205C36.7829 20.7181 36.6802 20.7967 36.5643 20.8506C36.4485 20.9045 36.3223 20.9325 36.1945 20.9326L36.191 20.9343ZM32.5018 17.2372C32.644 17.237 32.7842 17.2714 32.9102 17.3374L35.0271 18.4503L34.6231 16.0927C34.5991 15.9523 34.6095 15.8082 34.6536 15.6728C34.6977 15.5374 34.774 15.4147 34.876 15.3153L36.5889 13.6464L34.2217 13.3021C34.0809 13.2815 33.9472 13.227 33.8321 13.1433C33.7171 13.0596 33.6241 12.9492 33.5611 12.8216L32.5018 10.6766L31.4425 12.8234C31.3795 12.951 31.2865 13.0614 31.1714 13.1451C31.0564 13.2288 30.9227 13.2833 30.7819 13.3039L28.4147 13.6482L30.1275 15.3171C30.2296 15.4165 30.3059 15.5391 30.35 15.6746C30.394 15.81 30.4045 15.9541 30.3805 16.0945L29.9765 18.452L32.0933 17.3391C32.2192 17.2726 32.3594 17.2376 32.5018 17.2372Z" fill="#DB1E39"/>
<path d="M42.3523 25.2447C42.1405 25.245 41.9357 25.1687 41.7756 25.03C41.6156 24.8912 41.5111 24.6993 41.4814 24.4896C41.4516 24.2799 41.4987 24.0665 41.6139 23.8887C41.729 23.7109 41.9046 23.5807 42.1081 23.5222C49.0701 21.5019 52.437 18.2519 54.0356 15.8803C54.6429 15.0405 55.0102 14.0513 55.0981 13.0188C55.186 11.9862 54.9911 10.9492 54.5345 10.0189C52.5187 6.23656 47.4302 8.05568 47.2106 8.13561C47.1025 8.17598 46.9874 8.19466 46.8721 8.19058C46.7567 8.18649 46.6433 8.15972 46.5383 8.11181C46.4333 8.06389 46.3387 7.99575 46.26 7.91129C46.1814 7.82683 46.1201 7.7277 46.0797 7.61956C46.0393 7.51142 46.0207 7.39639 46.0247 7.28103C46.0288 7.16567 46.0556 7.05224 46.1035 6.94723C46.1514 6.84221 46.2196 6.74767 46.304 6.66898C46.3885 6.5903 46.4876 6.52902 46.5958 6.48865C48.9164 5.6252 53.8863 5.08324 56.0822 9.18703C56.6889 10.3988 56.9544 11.753 56.8501 13.1041C56.7458 14.4553 56.2757 15.7527 55.4902 16.857C53.7317 19.4728 50.0653 23.0461 42.5991 25.2095C42.519 25.2329 42.4358 25.2448 42.3523 25.2447Z" fill="#DB1E39"/>
<path d="M22.6437 25.2446C22.5607 25.2445 22.4782 25.2327 22.3986 25.2095C14.9324 23.046 11.2643 19.4728 9.50312 16.857C8.71763 15.7526 8.24753 14.4553 8.14324 13.1041C8.03894 11.7529 8.30438 10.3988 8.91109 9.18696C11.107 5.08054 16.0743 5.6269 18.3976 6.48858C18.5057 6.52896 18.6048 6.59023 18.6893 6.66892C18.7738 6.7476 18.8419 6.84215 18.8898 6.94716C18.9377 7.05218 18.9645 7.1656 18.9686 7.28096C18.9727 7.39632 18.954 7.51136 18.9136 7.6195C18.8732 7.72764 18.812 7.82677 18.7333 7.91123C18.6546 7.99569 18.5601 8.06382 18.455 8.11174C18.35 8.15966 18.2366 8.18642 18.1212 8.19051C18.0059 8.19459 17.8908 8.17592 17.7827 8.13554C17.5657 8.05561 12.4764 6.23649 10.4614 10.0135C10.0048 10.9438 9.81001 11.9808 9.8979 13.0134C9.98579 14.046 10.3531 15.0352 10.9603 15.8749C12.559 18.2466 15.9258 21.5045 22.8878 23.5168C23.0914 23.5754 23.2669 23.7056 23.3821 23.8833C23.4973 24.0611 23.5443 24.2745 23.5146 24.4842C23.4849 24.694 23.3804 24.8859 23.2203 25.0246C23.0603 25.1634 22.8555 25.2396 22.6437 25.2393V25.2446Z" fill="#DB1E39"/>
</svg>
