<svg width="14" height="14" viewBox="0 0 14 14" fill="none" xmlns="http://www.w3.org/2000/svg">
<path d="M12.0312 1.53125H1.96875C1.72676 1.53125 1.53125 1.72676 1.53125 1.96875V12.0312C1.53125 12.2732 1.72676 12.4688 1.96875 12.4688H12.0312C12.2732 12.4688 12.4688 12.2732 12.4688 12.0312V1.96875C12.4688 1.72676 12.2732 1.53125 12.0312 1.53125ZM10.768 4.72363H9.89434C9.20938 4.72363 9.07676 5.04902 9.07676 5.52754V6.58164H10.7119L10.4986 8.23184H9.07676V12.4688H7.37188V8.2332H5.9459V6.58164H7.37188V5.36484C7.37188 3.95254 8.23457 3.18281 9.49512 3.18281C10.0994 3.18281 10.6176 3.22793 10.7693 3.24844V4.72363H10.768Z" fill="#232323"/>
</svg>
