<svg width="14" height="14" viewBox="0 0 14 14" fill="none" xmlns="http://www.w3.org/2000/svg">
<path d="M9.7329 2.90039L7.2835 5.36461L7.05078 6.53515L7.42009 6.90666L8.42065 6.70535L10.9678 4.14276L9.7329 2.90039Z" fill="#828587"/>
<path d="M7.15069 7.80234L6.16052 6.80618L6.49747 5.11123C6.58782 4.65681 6.32767 4.2058 5.89066 4.05925C5.4209 3.94325 5.01074 4.11518 4.80265 4.48603L3.32943 7.16399L1.08655 8.11314C0.874748 8.20277 0.682248 8.33294 0.519771 8.4964C-0.173257 9.19362 -0.173257 10.3241 0.519771 11.0213L2.96091 13.4772C3.30744 13.8258 3.76159 14.0001 4.21577 14.0001C4.66993 14.0001 5.12411 13.8258 5.47063 13.4772C5.63311 13.3138 5.7625 13.1201 5.85159 12.907L6.79503 10.6505L9.45689 9.1684C9.84194 8.95399 10.0203 8.49384 9.8811 8.07383C9.75486 7.6928 9.40114 7.4554 9.01518 7.44539C8.68848 7.43689 7.15069 7.80234 7.15069 7.80234ZM3.93996 11.4103L2.57422 10.0363L3.15426 9.45278L4.52 10.8268L3.93996 11.4103ZM5.3057 10.0363L3.93996 8.66234L4.52 8.07878L5.88574 9.45278L5.3057 10.0363Z" fill="#828587"/>
<path d="M13.7673 0.234202C13.5312 -0.00331264 13.1727 -0.0670514 12.87 0.0746759L10.5948 1.13991L10.3125 2.31579L11.5486 3.55937L12.7174 3.27531L13.1419 1.99407L13.7673 1.36494C14.0777 1.05271 14.0777 0.546458 13.7673 0.234202Z" fill="#828587"/>
</svg>
