<svg width="25" height="19" viewBox="0 0 25 19" fill="none" xmlns="http://www.w3.org/2000/svg">
<path fill-rule="evenodd" clip-rule="evenodd" d="M0 1.5C0 0.671573 0.671573 0 1.5 0H23.5C24.3284 0 25 0.671573 25 1.5C25 2.32843 24.3284 3 23.5 3H1.5C0.671573 3 0 2.32843 0 1.5ZM0 9.5C0 8.67157 0.671573 8 1.5 8H23.5C24.3284 8 25 8.67157 25 9.5C25 10.3284 24.3284 11 23.5 11H1.5C0.671573 11 0 10.3284 0 9.5ZM1.5 16C0.671573 16 0 16.6716 0 17.5C0 18.3284 0.671573 19 1.5 19H23.5C24.3284 19 25 18.3284 25 17.5C25 16.6716 24.3284 16 23.5 16H1.5Z" fill="white"/>
</svg>
