<svg width="14" height="14" viewBox="0 0 14 14" fill="none" xmlns="http://www.w3.org/2000/svg">
<path d="M0.859226 7.62448C0.784134 7.6769 0.731175 7.75532 0.710611 7.84456C0.690048 7.9338 0.703345 8.02749 0.747926 8.10748L1.65513 9.67828C1.74823 9.83928 1.96173 9.90578 2.12903 9.82388L4.89963 8.48198V13.3008H6.29963V7.80298L9.14933 6.42188L7.31533 3.24388L0.859226 7.62448ZM12.9195 2.12668C12.5423 1.47432 11.9214 0.99844 11.1935 0.803648C10.4655 0.608856 9.68995 0.711091 9.03733 1.08788C8.40033 1.45538 7.98173 2.03918 7.77663 2.69018L9.85983 6.29938C10.5255 6.44778 11.2409 6.37638 11.8793 6.00888C12.5321 5.632 13.0084 5.01126 13.2034 4.28321C13.3985 3.55516 13.2964 2.77943 12.9195 2.12668Z" fill="#828587"/>
</svg>
