<svg width="14" height="14" viewBox="0 0 14 14" fill="none" xmlns="http://www.w3.org/2000/svg">
<path d="M2.1422 1.65234C2.14182 1.65234 2.1414 1.65234 2.14102 1.65234C2.00861 1.65234 1.88407 1.70396 1.79003 1.79777C1.69495 1.89261 1.64258 2.01889 1.64258 2.15333V9.66551C1.64258 9.94098 1.86757 10.1656 2.14418 10.1664C3.31028 10.1691 5.26397 10.4122 6.61175 11.8226V3.96089C6.61175 3.86751 6.5879 3.77979 6.54288 3.70719C5.43669 1.92575 3.31094 1.65508 2.1422 1.65234Z" fill="#828587"/>
<path d="M12.3578 9.66556V2.15333C12.3578 2.01889 12.3054 1.89261 12.2103 1.79777C12.1163 1.70396 11.9917 1.65234 11.8594 1.65234C11.859 1.65234 11.8586 1.65234 11.8582 1.65234C10.6895 1.65512 8.56373 1.92579 7.45749 3.70724C7.41248 3.77983 7.38867 3.86756 7.38867 3.96094V11.8226C8.73645 10.4122 10.6901 10.1691 11.8562 10.1664C12.1328 10.1656 12.3578 9.94098 12.3578 9.66556Z" fill="#828587"/>
<path d="M13.4978 3.38477H13.1345V9.66551C13.1345 10.3689 12.5615 10.9424 11.8571 10.9441C10.8679 10.9465 9.23706 11.1399 8.08203 12.2331C10.0797 11.744 12.1855 12.0619 13.3857 12.3354C13.5355 12.3695 13.6904 12.3343 13.8104 12.2386C13.9301 12.1431 13.9987 12.0005 13.9987 11.8473V3.88566C13.9987 3.60947 13.774 3.38477 13.4978 3.38477Z" fill="#828587"/>
<path d="M0.864138 9.66551V3.38477H0.500891C0.224755 3.38477 0 3.60947 0 3.88566V11.8472C0 12.0004 0.0686332 12.143 0.18827 12.2385C0.308237 12.3341 0.462944 12.3695 0.613032 12.3353C1.81317 12.0617 3.91907 11.7438 5.9166 12.2329C4.76162 11.1398 3.13073 10.9464 2.14163 10.9441C1.43724 10.9424 0.864138 10.3689 0.864138 9.66551Z" fill="#828587"/>
</svg>
