<svg width="14" height="14" viewBox="0 0 14 14" fill="none" xmlns="http://www.w3.org/2000/svg">
<path d="M7 14C5.73307 14 4.56185 13.6878 3.48633 13.0635C2.41081 12.4391 1.56087 11.5892 0.936523 10.5137C0.312174 9.43815 0 8.26693 0 7C0 5.73307 0.312174 4.56185 0.936523 3.48633C1.56087 2.41081 2.41081 1.56087 3.48633 0.936523C4.56185 0.312174 5.73307 0 7 0C8.02083 0 8.71354 0.125326 9.07812 0.375977C9.44271 0.626628 9.625 1.08464 9.625 1.75C9.625 2.04167 9.55664 2.31966 9.41992 2.58398C9.2832 2.84831 9.13281 3.0625 8.96875 3.22656C8.80469 3.39062 8.6543 3.5752 8.51758 3.78027C8.38086 3.98535 8.3125 4.18359 8.3125 4.375C8.3125 5.25 8.75 5.6875 9.625 5.6875C9.81641 5.6875 10.0146 5.61914 10.2197 5.48242C10.4248 5.3457 10.6094 5.19531 10.7734 5.03125C10.9375 4.86719 11.1517 4.7168 11.416 4.58008C11.6803 4.44336 11.9583 4.375 12.25 4.375C12.9062 4.375 13.362 4.56185 13.6172 4.93555C13.8724 5.30924 14 5.9974 14 7C14 7.94792 13.8154 8.85482 13.4463 9.7207C13.0771 10.5866 12.5804 11.3317 11.9561 11.9561C11.3317 12.5804 10.5866 13.0771 9.7207 13.4463C8.85482 13.8154 7.94792 14 7 14ZM3.9375 11.375C4.30208 11.375 4.61198 11.2474 4.86719 10.9922C5.1224 10.737 5.25 10.4271 5.25 10.0625C5.25 9.69792 5.1224 9.38802 4.86719 9.13281C4.61198 8.8776 4.30208 8.75 3.9375 8.75C3.57292 8.75 3.26302 8.8776 3.00781 9.13281C2.7526 9.38802 2.625 9.69792 2.625 10.0625C2.625 10.4271 2.7526 10.737 3.00781 10.9922C3.26302 11.2474 3.57292 11.375 3.9375 11.375ZM3.0625 4.375C2.69792 4.375 2.38802 4.5026 2.13281 4.75781C1.8776 5.01302 1.75 5.32292 1.75 5.6875C1.75 6.05208 1.8776 6.36198 2.13281 6.61719C2.38802 6.8724 2.69792 7 3.0625 7C3.42708 7 3.73698 6.8724 3.99219 6.61719C4.2474 6.36198 4.375 6.05208 4.375 5.6875C4.375 5.32292 4.2474 5.01302 3.99219 4.75781C3.73698 4.5026 3.42708 4.375 3.0625 4.375ZM5.6875 1.75C5.32292 1.75 5.01302 1.8776 4.75781 2.13281C4.5026 2.38802 4.375 2.69792 4.375 3.0625C4.375 3.42708 4.5026 3.73698 4.75781 3.99219C5.01302 4.2474 5.32292 4.375 5.6875 4.375C6.05208 4.375 6.36198 4.2474 6.61719 3.99219C6.8724 3.73698 7 3.42708 7 3.0625C7 2.69792 6.8724 2.38802 6.61719 2.13281C6.36198 1.8776 6.05208 1.75 5.6875 1.75ZM8.3125 9.625C7.94792 9.625 7.63802 9.7526 7.38281 10.0078C7.1276 10.263 7 10.5729 7 10.9375C7 11.3021 7.1276 11.612 7.38281 11.8672C7.63802 12.1224 7.94792 12.25 8.3125 12.25C8.67708 12.25 8.98698 12.1224 9.24219 11.8672C9.4974 11.612 9.625 11.3021 9.625 10.9375C9.625 10.5729 9.4974 10.263 9.24219 10.0078C8.98698 9.7526 8.67708 9.625 8.3125 9.625ZM10.9375 7C10.5729 7 10.263 7.1276 10.0078 7.38281C9.7526 7.63802 9.625 7.94792 9.625 8.3125C9.625 8.67708 9.7526 8.98698 10.0078 9.24219C10.263 9.4974 10.5729 9.625 10.9375 9.625C11.3021 9.625 11.612 9.4974 11.8672 9.24219C12.1224 8.98698 12.25 8.67708 12.25 8.3125C12.25 7.94792 12.1224 7.63802 11.8672 7.38281C11.612 7.1276 11.3021 7 10.9375 7Z" fill="#828587"/>
</svg>
