<svg width="24" height="24" viewBox="0 0 24 24" fill="none" xmlns="http://www.w3.org/2000/svg">
<path fill-rule="evenodd" clip-rule="evenodd" d="M17.9789 24C17.8667 24 17.7546 23.9968 17.6393 23.9905C16.1423 23.9069 14.6232 23.4689 12.8628 22.6099C9.73243 21.0833 6.99243 18.9315 4.7158 16.2127C2.88878 14.0344 1.58331 11.8477 0.726401 9.52878C0.334972 8.48356 -0.100889 7.07124 0.0207716 5.46321C0.107521 4.34923 0.545497 3.41297 1.32201 2.6756C1.669 2.34342 2.00754 1.9996 2.34713 1.65683C2.57881 1.42092 2.81261 1.185 3.04958 0.950145C4.32437 -0.314064 6.1133 -0.316179 7.39867 0.940624C7.71605 1.25377 8.02601 1.56691 8.33704 1.88005L10.1895 3.74833C11.5023 5.07284 11.5055 6.85649 10.1916 8.18205L9.90276 8.47509C9.57692 8.80516 9.25214 9.13523 8.92418 9.46107C9.19924 9.9858 9.55893 10.5158 10.0308 11.0977C11.3151 12.6792 12.6343 13.8874 14.0614 14.7898C14.1958 14.8734 14.3407 14.9485 14.4878 15.0215C14.9162 14.5867 15.3447 14.1603 15.7742 13.734C17.0564 12.456 18.8464 12.4592 20.1339 13.7308L20.4163 14.0143C21.2595 14.8564 22.1016 15.6985 22.9405 16.5438C24.2227 17.8408 24.2185 19.6573 22.932 20.9638C22.7427 21.1563 22.5491 21.3446 22.3544 21.534C22.0243 21.8577 21.6932 22.1793 21.3864 22.5221C20.5168 23.5017 19.3711 24 17.9789 24ZM5.22783 2.66291C5.13368 2.66291 5.03846 2.72427 4.91469 2.84699C4.68406 3.07444 4.45978 3.30295 4.23445 3.5304C3.87687 3.89221 3.52035 4.25507 3.15114 4.60736C2.85175 4.89194 2.70364 5.21777 2.66873 5.66845C2.60526 6.51372 2.77347 7.41824 3.21462 8.59676C3.96574 10.629 5.12098 12.5576 6.74805 14.4989C8.78348 16.9289 11.2315 18.8522 14.0233 20.2148C15.4759 20.9225 16.6374 21.2663 17.7863 21.3298C18.5131 21.3774 19.0072 21.1965 19.406 20.7469C19.7551 20.3576 20.1286 19.9905 20.502 19.6255C20.6829 19.4488 20.8659 19.2701 21.0437 19.0902C21.3325 18.7972 21.3018 18.6723 21.0553 18.4216C20.2206 17.5806 19.3817 16.7406 18.5417 15.9017L18.2656 15.6255C18.0159 15.3759 17.8932 15.3759 17.6456 15.6234C17.068 16.1979 16.4915 16.7734 15.9234 17.3573C15.3521 17.953 14.5512 18.0799 13.8393 17.6747C13.725 17.6123 13.5885 17.5457 13.4531 17.478C13.1802 17.3436 12.9094 17.2082 12.6533 17.0484C10.9702 15.9852 9.44045 14.5898 7.971 12.7798C7.16805 11.7906 6.61052 10.8893 6.21592 9.94348C5.92394 9.25584 6.06041 8.55338 6.59042 8.02337C7.0813 7.5473 7.54678 7.07547 8.01438 6.60153L8.30636 6.30531C8.592 6.0165 8.592 5.91494 8.30213 5.62296L6.45184 3.75785C6.14927 3.45211 5.84777 3.14638 5.53991 2.84487C5.4172 2.72427 5.32198 2.66291 5.22783 2.66291Z" fill="#DB1E39"/>
</svg>
