<svg width="16" height="16" viewBox="0 0 16 16" fill="none" xmlns="http://www.w3.org/2000/svg">
<path d="M14.9274 12.0157C14.212 13.2413 13.2416 14.2117 12.0159 14.9271C10.79 15.6424 9.45183 16 8.00025 16C6.54883 16 5.21022 15.6424 3.98457 14.9271C2.75884 14.2118 1.78844 13.2414 1.07303 12.0157C0.357593 10.7899 0 9.45131 0 8C0 6.54862 0.357702 5.21023 1.07293 3.98437C1.78829 2.75875 2.75869 1.78836 3.98442 1.07292C5.21022 0.357627 6.54872 0 8.00011 0C9.4515 0 10.7901 0.357627 12.0159 1.07292C13.2415 1.7881 14.2119 2.75875 14.9272 3.98437C15.6424 5.21012 16 6.54869 16 8C16 9.45145 15.6424 10.7901 14.9274 12.0157ZM12.667 7.33334C12.667 7.15281 12.6009 6.99636 12.4689 6.86462C12.3368 6.73276 12.1806 6.66658 12.0002 6.66658H9.33343V4.00009C9.33343 3.81956 9.26728 3.66326 9.13539 3.53111C9.00357 3.39929 8.84726 3.33332 8.66666 3.33332H7.33338C7.15285 3.33332 6.99658 3.39929 6.86465 3.53111C6.73268 3.66322 6.66668 3.81953 6.66668 4.00009V6.66658H4C3.81947 6.66658 3.66328 6.73272 3.53127 6.86462C3.39934 6.99633 3.33338 7.15278 3.33338 7.33334V8.66677C3.33338 8.8473 3.39938 9.00356 3.53127 9.13549C3.66324 9.26746 3.81943 9.33346 4 9.33346H6.66679V12.0001C6.66679 12.1807 6.73279 12.3368 6.86476 12.4689C6.99669 12.6008 7.15292 12.6667 7.33349 12.6667H8.66692C8.84745 12.6667 9.00379 12.6007 9.13564 12.4689C9.2675 12.3369 9.33369 12.1807 9.33369 12.0001V9.33346H12.0002C12.1807 9.33346 12.337 9.26746 12.4689 9.13549C12.6009 9.0036 12.667 8.84733 12.667 8.66677V7.33334Z" fill="#DB1E39"/>
</svg>
