<svg width="14" height="14" viewBox="0 0 14 14" fill="none" xmlns="http://www.w3.org/2000/svg">
<g clip-path="url(#clip0)">
<path d="M13.1132 9.01901L13.5966 8.53563C13.9697 8.1625 13.9697 7.55533 13.5966 7.1822L13.2099 6.79547C12.8367 6.42234 12.2296 6.42234 11.8564 6.79547L11.373 7.27886L13.1132 9.01901Z" fill="#828587"/>
<path d="M7.89062 10.7598L10.7905 7.85993L12.5303 9.59982L9.63051 12.4997L7.89062 10.7598Z" fill="#828587"/>
<path d="M7.40154 11.4277L6.5524 13.2958C6.48166 13.4515 6.51486 13.6347 6.63577 13.7556C6.71439 13.8342 6.8193 13.8757 6.92589 13.8757C6.98323 13.8757 7.04106 13.8637 7.0955 13.8389L8.96361 12.9898L7.40154 11.4277Z" fill="#828587"/>
<path d="M13.8799 2.44033L11.5597 0.120135C11.3995 -0.0400449 11.1398 -0.0400449 10.9796 0.120135L0.120135 10.9796C-0.0400449 11.1398 -0.0400449 11.3995 0.120135 11.5597L2.44033 13.8799C2.52042 13.96 2.6254 14 2.73034 14C2.83529 14 2.94029 13.96 3.02035 13.8799L3.83815 13.0621L2.77472 11.9987C2.61454 11.8385 2.61454 11.5788 2.77472 11.4187C2.9349 11.2585 3.19458 11.2585 3.35476 11.4187L4.41819 12.4821L4.91863 11.9816L4.04856 11.1116C3.88838 10.9514 3.88838 10.6917 4.04856 10.5315C4.20874 10.3713 4.46842 10.3713 4.6286 10.5315L5.49868 11.4016L5.99912 10.9011L4.9357 9.83772C4.77552 9.67754 4.77552 9.41786 4.9357 9.25768C5.09588 9.0975 5.35556 9.0975 5.51574 9.25768L6.57917 10.3211L7.07958 9.82063L6.20951 8.95055C6.04933 8.79037 6.04933 8.53069 6.20951 8.37051C6.36969 8.21033 6.62937 8.21033 6.78955 8.37051L7.65963 9.24059L8.16007 8.74014L7.09665 7.67674C6.93647 7.51656 6.93647 7.25688 7.09665 7.0967C7.25683 6.93652 7.51651 6.93652 7.67669 7.0967L8.74011 8.1601L9.24053 7.65968L8.37048 6.7896C8.2103 6.62942 8.2103 6.36971 8.37048 6.20956C8.53066 6.04938 8.79035 6.04938 8.95052 6.20956L9.82055 7.07964L10.321 6.57917L9.25759 5.51577C9.09741 5.35559 9.09741 5.0959 9.25759 4.93572C9.41777 4.77555 9.67746 4.77555 9.83764 4.93572L10.9011 5.99915L11.4015 5.49871L10.5314 4.62865C10.3713 4.46847 10.3713 4.20879 10.5314 4.04861C10.6916 3.88843 10.9513 3.88843 11.1115 4.04861L11.9816 4.91866L13.8798 3.02038C14.04 2.8602 14.04 2.60049 13.8799 2.44033ZM11.6119 2.96818C11.4517 3.12836 11.192 3.12836 11.0318 2.96818C10.8717 2.808 10.8717 2.54831 11.0318 2.38813C11.192 2.22795 11.4517 2.22795 11.6119 2.38813C11.7721 2.54831 11.7721 2.808 11.6119 2.96818Z" fill="#828587"/>
</g>
<defs>
<clipPath id="clip0">
<rect width="14" height="14" fill="white"/>
</clipPath>
</defs>
</svg>
