<svg width="65" height="65" viewBox="0 0 65 65" fill="none" xmlns="http://www.w3.org/2000/svg">
<path d="M20.4752 40.7159C20.4533 40.6752 20.4285 40.6361 20.4013 40.5989C20.3586 40.5275 20.3075 40.461 20.2495 40.4015C20.2123 40.3673 20.1731 40.335 20.1315 40.3063C20.0645 40.2567 19.9916 40.2155 19.9148 40.1838C19.89 40.1669 19.8637 40.1516 19.8369 40.1382C19.8161 40.1317 19.7948 40.1382 19.7729 40.1307C19.6877 40.1094 19.5999 40.0985 19.5121 40.098C19.4665 40.0955 19.4209 40.0955 19.3752 40.098C19.3633 40.098 19.3529 40.098 19.3405 40.098C14.1394 41.0194 9.1188 42.7665 4.46964 45.2743C3.83736 45.6031 3.33351 46.1347 3.03993 46.7844C0.034714 53.4643 0 63.4926 0 63.9161C0 64.5147 0.485001 64.9997 1.08356 64.9997H53.0833C53.6818 64.9997 54.1668 64.5147 54.1668 63.9161C54.1668 63.4926 54.1321 53.4643 51.1269 46.7844C50.8333 46.1347 50.3295 45.6031 49.6967 45.2743C45.0465 42.7645 40.024 41.0154 34.8204 40.094C34.8085 40.094 34.7976 40.094 34.7857 40.094C34.7395 40.0911 34.6934 40.0911 34.6473 40.094C34.56 40.094 34.4737 40.1049 34.3894 40.1263C34.3676 40.1317 34.3458 40.1263 34.3245 40.1337C34.3026 40.1416 34.2724 40.1674 34.2441 40.1803C34.1677 40.2126 34.0953 40.2527 34.0274 40.3008C33.9853 40.3301 33.9451 40.3628 33.9074 40.398C33.8499 40.4575 33.7993 40.523 33.7566 40.5934C33.7299 40.6311 33.7051 40.6703 33.6832 40.7114C33.6763 40.7253 33.6659 40.7352 33.6589 40.7491L27.0832 56.7373L20.5019 40.7536C20.4955 40.7397 20.4846 40.7328 20.4752 40.7159ZM26.0799 59.9989C26.19 60.2647 26.4013 60.476 26.6671 60.586H26.674C26.804 60.6391 26.9428 60.6664 27.0832 60.6664C27.2205 60.6664 27.3569 60.6396 27.4844 60.5885H27.4948C27.7606 60.4774 27.9713 60.2667 28.0819 60.0014L34.5585 44.2711L36.6751 50.6237L32.8164 54.4839C32.6136 54.6872 32.5 54.9624 32.5 55.2496V59.9969L27.0832 62.7051L21.6668 59.9969V55.2496C21.6668 54.9624 21.5523 54.6867 21.3494 54.4839L17.4903 50.6237L19.6083 44.2711L26.0824 59.9959L26.0799 59.9989ZM5.01564 47.6715C5.11383 47.4628 5.27897 47.2932 5.48477 47.1885C9.40346 45.1092 13.576 43.5495 17.8979 42.5498L15.223 50.5741C15.093 50.9629 15.1942 51.3919 15.4843 51.6825L19.5002 55.6984V60.6664C19.4977 61.079 19.7298 61.4569 20.0993 61.6413L22.4945 62.833H2.19044C2.28565 60.0847 2.75082 52.707 5.01564 47.6715ZM49.1507 47.6715C51.413 52.7006 51.8797 60.0837 51.9764 62.833H31.6723L34.0676 61.6413C34.4365 61.4569 34.6691 61.079 34.6666 60.6664V55.6984L38.6825 51.6825C38.9721 51.3919 39.0733 50.9629 38.9439 50.5741L36.2689 42.5498C40.5908 43.5495 44.7634 45.1092 48.6816 47.1885C48.8879 47.2932 49.053 47.4633 49.1507 47.673V47.6715Z" fill="#DB1E39"/>
<path d="M28.1666 46.5826V45.4991C28.1666 44.901 27.6816 44.416 27.0831 44.416C26.485 44.416 26 44.901 26 45.4991V46.5826C26 47.1807 26.485 47.6657 27.0831 47.6657C27.6816 47.6657 28.1666 47.1807 28.1666 46.5826Z" fill="#DB1E39"/>
<path d="M56.4175 16.25H51.0672C50.7151 15.1486 49.8522 14.2852 48.7508 13.9326V7.33307C48.7508 6.735 48.2658 6.25 47.6672 6.25C47.0691 6.25 46.5841 6.735 46.5841 7.33307V13.9326C44.966 14.4419 43.9285 16.018 44.1006 17.7055C44.2722 19.3926 45.6062 20.7271 47.2938 20.8997C48.9814 21.0718 50.5574 20.0348 51.0672 18.4167H56.4175C57.0156 18.4167 57.5006 17.9317 57.5006 17.3336C57.5006 16.735 57.0156 16.25 56.4175 16.25ZM47.6672 18.7524C46.899 18.7331 46.2861 18.1057 46.2841 17.3371C46.2821 16.5684 46.8926 15.9381 47.6608 15.9153H47.6742C48.4493 15.9217 49.0756 16.5486 49.082 17.3237V17.3346C49.0811 18.1157 48.4488 18.7494 47.6672 18.7524Z" fill="#DB1E39"/>
<path d="M62.6772 8.66653C59.6115 3.35583 53.9675 0.0600052 47.8356 0H47.6665C41.475 0.000991821 35.7542 3.30475 32.6582 8.66653C32.2744 9.33998 31.9372 10.0387 31.6495 10.7588C30.2575 9.7501 28.9696 9.7501 24.9166 9.7501C20.4752 9.7501 17.9961 13.3975 16.916 15.5706C16.4732 16.4613 16.2446 17.4437 16.25 18.4385V22.9959C15.2046 23.4432 14.0834 24.5927 14.0834 27.0832C13.9981 29.2324 15.5721 31.0891 17.706 31.3569C18.4499 32.8809 19.0251 34.4812 19.4209 36.1301C19.5701 37.0078 20.0705 37.7864 20.8064 38.2873L25.8875 41.6674C26.6111 42.1524 27.5558 42.1524 28.2793 41.6674L33.3708 38.2838C34.1053 37.7819 34.6037 37.0029 34.7524 36.1261C35.1492 34.4747 35.7259 32.8719 36.4713 31.346C36.7286 31.2979 36.9821 31.231 37.23 31.1457C37.7954 31.5796 38.3865 31.9788 38.9999 32.3418C47.2891 37.1268 57.8877 34.2878 62.6752 26.0001C65.7726 20.6378 65.7736 14.0303 62.6787 8.66653H62.6772ZM34.7753 29.8489C33.832 31.7239 33.1055 33.6996 32.6081 35.7383C32.5635 36.0373 32.3998 36.3061 32.1544 36.4837L27.0832 39.8668L22.011 36.4866C21.764 36.3111 21.5984 36.0423 21.5528 35.7423C21.0564 33.7021 20.3294 31.7254 19.3862 29.8489C19.2027 29.4819 18.8273 29.2498 18.4167 29.2498C17.831 29.288 17.2577 29.0718 16.8431 28.6572C16.4281 28.2421 16.2118 27.6688 16.25 27.0832C16.25 25.0901 17.1784 24.9284 17.3336 24.9165C17.6207 24.9165 17.8964 24.8025 18.0993 24.5992C18.3026 24.3963 18.4167 24.1206 18.4167 23.8335V18.4385C18.4122 17.7789 18.5625 17.1278 18.8555 16.5371C19.7169 14.8114 21.643 11.9167 24.9166 11.9167C29.8662 11.9167 29.8662 11.9167 31.353 13.3846L31.7343 13.766C31.9372 13.9693 32.2129 14.0834 32.5 14.0834C32.6324 14.0834 35.7502 14.132 35.7502 18.4166V23.8335C35.7537 24.38 36.1683 24.8357 36.7118 24.8917C36.742 24.9017 36.7723 24.9101 36.803 24.9165C36.9885 24.9284 37.9169 25.0901 37.9169 27.0832C38.0026 27.8613 37.5896 28.6086 36.8854 28.9498C36.5313 29.1258 36.145 29.228 35.7502 29.2498C35.3376 29.2478 34.9592 29.4799 34.7753 29.8489ZM56.146 29.8632L56.0994 29.7819C55.907 29.4442 55.549 29.2349 55.1602 29.2339C54.7714 29.2329 54.4118 29.4407 54.2184 29.7779C54.0245 30.1147 54.0265 30.5297 54.2229 30.8655L54.2859 30.9736C52.5492 31.8032 50.6707 32.2947 48.75 32.4221V32.3334C48.75 31.7348 48.265 31.2498 47.6665 31.2498C47.0684 31.2498 46.5834 31.7348 46.5834 32.3334V32.4221C44.2982 32.2778 42.0765 31.6108 40.0899 30.4722C39.7646 30.2823 39.4562 30.0819 39.1537 29.8761C39.7849 29.0847 40.1142 28.0948 40.0835 27.0832C40.0835 24.5917 38.9622 23.4432 37.9169 22.9959V18.4166C37.9169 14.0834 35.3991 12.4399 33.4869 12.0303C33.6515 11.583 33.836 11.1476 34.0438 10.7186L34.1345 10.7717C34.4703 10.9681 34.8853 10.97 35.2221 10.7766C35.5593 10.5827 35.7671 10.2232 35.7661 9.8344C35.7651 9.44611 35.5558 9.08756 35.2181 8.89515L35.1358 8.84853C36.2169 7.25666 37.5896 5.88398 39.1819 4.80339L39.2285 4.88472C39.5296 5.39848 40.1891 5.57304 40.7049 5.275C41.2206 4.97746 41.3991 4.31889 41.1051 3.80165L41.0411 3.69305C42.7768 2.84851 44.6578 2.34417 46.5834 2.20779V2.33326C46.5834 2.93182 47.0684 3.41682 47.6665 3.41682C48.265 3.41682 48.75 2.93182 48.75 2.33326V2.2068C50.6746 2.34615 52.5551 2.85049 54.2913 3.69305L54.2283 3.80165C54.032 4.13689 54.03 4.55196 54.2234 4.88869C54.4173 5.22591 54.7768 5.43369 55.1656 5.4327C55.5539 5.43171 55.9125 5.22293 56.1049 4.88472L56.1525 4.80339C57.7439 5.88448 59.1165 7.25716 60.1976 8.84853L60.1153 8.89515C59.7771 9.08756 59.5683 9.44611 59.5673 9.8344C59.5663 10.2232 59.7741 10.5827 60.1113 10.7766C60.4481 10.97 60.8631 10.9681 61.1984 10.7717L61.307 10.7077C62.152 12.4429 62.6558 14.3244 62.7922 16.25H62.6668C62.0682 16.25 61.5832 16.735 61.5832 17.3336C61.5832 17.9316 62.0682 18.4166 62.6668 18.4166H62.7922C62.6568 20.3418 62.153 22.2232 61.309 23.9589L61.2008 23.895C60.8656 23.6986 60.4505 23.6966 60.1133 23.8905C59.7761 24.0839 59.5688 24.4434 59.5693 24.8322C59.5703 25.221 59.7796 25.5791 60.1173 25.7715L60.1996 25.8181C59.118 27.41 57.7444 28.7827 56.1515 29.8632H56.146Z" fill="#DB1E39"/>
</svg>
