<svg width="26" height="30" viewBox="0 0 26 30" fill="none" xmlns="http://www.w3.org/2000/svg">
<path d="M16.6794 14.0125C17.813 13.4 18.7588 12.4909 19.4157 11.3825C20.0725 10.274 20.4158 9.00784 20.4087 7.71937C20.431 5.86315 19.7161 4.07388 18.421 2.74395C17.1259 1.41403 15.3562 0.652006 13.5 0.625C11.6438 0.652006 9.87415 1.41403 8.57902 2.74395C7.28389 4.07388 6.56904 5.86315 6.59125 7.71937C6.58577 9.00868 6.93042 10.2753 7.58844 11.3841C8.24645 12.4928 9.19314 13.4021 10.3275 14.015C7.89644 14.7067 5.75669 16.1712 4.23172 18.1869C2.70675 20.2026 1.87949 22.6599 1.875 25.1875V27.6031C1.87517 28.0728 2.06173 28.5232 2.39371 28.8554C2.7257 29.1876 3.17596 29.3745 3.64563 29.375H23.3538C23.8233 29.3745 24.2734 29.1878 24.6054 28.8559C24.9375 28.524 25.1243 28.0739 25.125 27.6044V25.1875C25.1278 22.6588 24.3042 20.1985 22.7796 18.1811C21.255 16.1638 19.1128 14.6999 16.6794 14.0125ZM7.84125 7.71937C7.81868 6.19456 8.40171 4.72302 9.4625 3.62743C10.5233 2.53185 11.9752 1.90164 13.5 1.875C15.0248 1.90164 16.4767 2.53185 17.5375 3.62743C18.5983 4.72302 19.1813 6.19456 19.1587 7.71937C19.1821 9.24431 18.5993 10.7162 17.5384 11.8118C16.4774 12.9073 15.0249 13.537 13.5 13.5625C11.9755 13.5359 10.5237 12.9058 9.46294 11.8105C8.40219 10.7152 7.81901 9.24398 7.84125 7.71937ZM23.875 27.6044C23.8747 27.7425 23.8196 27.8748 23.7219 27.9724C23.6242 28.07 23.4918 28.1248 23.3538 28.125H3.64563C3.5076 28.1248 3.37527 28.0699 3.27767 27.9723C3.18007 27.8747 3.12517 27.7424 3.125 27.6044V25.1875C3.125 22.4359 4.21808 19.797 6.16377 17.8513C8.10946 15.9056 10.7484 14.8125 13.5 14.8125C16.2516 14.8125 18.8905 15.9056 20.8362 17.8513C22.7819 19.797 23.875 22.4359 23.875 25.1875V27.6044Z" fill="white"/>
</svg>
