<svg width="33" height="33" viewBox="0 0 33 33" fill="none" xmlns="http://www.w3.org/2000/svg">
<path d="M26.3925 13.0394C27.2559 12.605 28.0127 11.9852 28.6085 11.2242C29.2044 10.4632 29.6247 9.57984 29.8392 8.63742C30.0538 7.695 30.0573 6.7168 29.8496 5.77285C29.6419 4.8289 29.2281 3.94254 28.6378 3.17722C28.0475 2.4119 27.2953 1.78656 26.435 1.34594C25.5747 0.905333 24.6277 0.660357 23.6617 0.628551C22.6957 0.596746 21.7346 0.778898 20.8472 1.16197C19.9598 1.54504 19.1681 2.11955 18.5287 2.84438C17.0427 2.3972 15.4579 2.3972 13.9719 2.84438C13.3323 2.11982 12.5403 1.54564 11.6529 1.16293C10.7654 0.780232 9.80423 0.59848 8.83828 0.630688C7.87233 0.662897 6.92544 0.908271 6.06541 1.34924C5.20538 1.79022 4.45349 2.41588 3.86355 3.18144C3.27362 3.947 2.86024 4.83352 2.653 5.77753C2.44577 6.72154 2.44982 7.6997 2.66485 8.64196C2.87988 9.58423 3.30057 10.4673 3.89682 11.228C4.49306 11.9886 5.2501 12.608 6.11375 13.0419C4.50429 13.6433 3.11658 14.7214 2.13585 16.1322C1.15513 17.543 0.628061 19.2193 0.625 20.9375V25C0.625 25.1658 0.690848 25.3247 0.808058 25.442C0.925268 25.5592 1.08424 25.625 1.25 25.625H5.79125C5.68136 26.244 5.62573 26.8714 5.625 27.5V31.25C5.625 31.4158 5.69085 31.5747 5.80806 31.692C5.92527 31.8092 6.08424 31.875 6.25 31.875H26.25C26.4158 31.875 26.5747 31.8092 26.6919 31.692C26.8092 31.5747 26.875 31.4158 26.875 31.25V27.5C26.8743 26.8714 26.8186 26.244 26.7088 25.625H31.25C31.4158 25.625 31.5747 25.5592 31.6919 25.442C31.8092 25.3247 31.875 25.1658 31.875 25V20.9375C31.8783 19.2184 31.3545 17.5396 30.3742 16.1274C29.3939 14.7151 28.0043 13.6374 26.3925 13.0394ZM23.4375 1.87501C24.8176 1.87682 26.1429 2.41567 27.1327 3.37747C28.1225 4.33928 28.6992 5.64853 28.7406 7.02805C28.782 8.40757 28.285 9.74907 27.3547 10.7685C26.4243 11.788 25.1338 12.4054 23.7562 12.49C23.9541 11.7809 24.057 11.0487 24.0625 10.3125C24.0537 8.8688 23.6492 7.45514 22.8931 6.22527C22.1369 4.99539 21.0581 3.99638 19.7738 3.33688C20.7604 2.39474 22.0733 1.87087 23.4375 1.87501ZM18.515 4.14938C19.9575 4.67676 21.1694 5.69341 21.9395 7.02228C22.7097 8.35116 22.9893 9.90806 22.7298 11.4219C22.4702 12.9357 21.6879 14.3105 20.5191 15.307C19.3503 16.3034 17.8689 16.8583 16.3331 16.875C16.2425 16.875 16.2013 16.875 16.0962 16.875C14.5689 16.8382 13.1023 16.27 11.9488 15.2682C10.7954 14.2664 10.0273 12.8937 9.777 11.3866C9.52665 9.87954 9.80966 8.33231 10.5773 7.01142C11.3449 5.69052 12.5491 4.67863 13.9825 4.15001C15.4468 3.6201 17.0505 3.61988 18.515 4.14938ZM3.75 7.18751C3.74929 6.14752 4.05385 5.13021 4.62591 4.26169C5.19797 3.39318 6.01237 2.71167 6.96812 2.30167C7.92388 1.89167 8.97895 1.77121 10.0025 1.95523C11.0261 2.13926 11.9732 2.61966 12.7262 3.33688C11.4414 3.99572 10.3621 4.99458 9.60582 6.2246C8.84958 7.45462 8.44546 8.86863 8.4375 10.3125C8.4431 11.0487 8.54607 11.7809 8.74375 12.49C7.39301 12.4073 6.12458 11.8129 5.19678 10.8277C4.26899 9.84255 3.75161 8.54078 3.75 7.18751ZM1.875 20.9375C1.87804 19.9801 2.0717 19.0328 2.44469 18.151C2.81767 17.2691 3.36252 16.4704 4.04744 15.8014C4.73236 15.1323 5.54365 14.6064 6.43398 14.2542C7.32431 13.902 8.27586 13.7306 9.23312 13.75C10.0311 15.3511 11.3463 16.636 12.9656 17.3963C11.3462 17.927 9.87714 18.8374 8.68109 20.0514C7.48503 21.2654 6.59662 22.7478 6.09 24.375H1.875V20.9375ZM25.625 30.625H6.875V27.5C6.875 21.7369 12.04 17.7863 16.41 18.1313C18.8692 18.1677 21.2152 19.1714 22.9399 20.9248C24.6645 22.6783 25.6292 25.0405 25.625 27.5V30.625ZM30.625 24.375H26.4094C25.9031 22.749 25.0161 21.2672 23.822 20.053C22.6278 18.8387 21.1611 17.9271 19.5438 17.3938C21.157 16.6293 22.4678 15.3465 23.2669 13.75C24.2252 13.7266 25.1785 13.8952 26.0706 14.246C26.9628 14.5967 27.7756 15.1225 28.4614 15.7923C29.1471 16.4622 29.6918 17.2625 30.0634 18.1462C30.435 19.0298 30.626 19.9789 30.625 20.9375V24.375Z" fill="#828587"/>
</svg>
