<svg width="16" height="16" viewBox="0 0 16 16" fill="none" xmlns="http://www.w3.org/2000/svg">
<g clip-path="url(#clip0)">
<path fill-rule="evenodd" clip-rule="evenodd" d="M14.2417 9.83778C14.2417 9.83778 15.5353 11.1154 15.8553 11.7066C15.8615 11.7151 15.8664 11.7246 15.8697 11.7346C16.0001 11.953 16.0321 12.1242 15.9681 12.2506C15.8601 12.4594 15.4945 12.5642 15.3705 12.573H13.0841C12.9249 12.573 12.5937 12.5314 12.1905 12.253C11.8825 12.0378 11.5761 11.6834 11.2793 11.337C10.8361 10.8226 10.4529 10.3762 10.0649 10.3762C10.0159 10.3761 9.96719 10.3842 9.92087 10.4002C9.62727 10.493 9.25447 10.9114 9.25447 12.0258C9.25447 12.3746 8.97927 12.573 8.78647 12.573H7.73927C7.38247 12.573 5.52487 12.4482 3.87767 10.7114C1.85927 8.58498 0.046472 4.31938 0.028872 4.28178C-0.083928 4.00578 0.152872 3.85538 0.408872 3.85538H2.71767C3.02727 3.85538 3.12807 4.04258 3.19847 4.21058C3.28007 4.40338 3.58247 5.17458 4.07847 6.04098C4.88167 7.45058 5.37527 8.02418 5.76967 8.02418C5.84377 8.0244 5.91662 8.00508 5.98087 7.96818C6.49607 7.68498 6.40007 5.84498 6.37607 5.46578C6.37607 5.39218 6.37527 4.64418 6.11127 4.28258C5.92247 4.02338 5.60087 3.92258 5.40647 3.88578C5.45847 3.81058 5.56887 3.69538 5.71047 3.62738C6.06327 3.45138 6.70087 3.42578 7.33367 3.42578H7.68487C8.37127 3.43538 8.54887 3.47938 8.79847 3.54258C9.30087 3.66258 9.31047 3.98818 9.26647 5.09698C9.25367 5.41378 9.24007 5.77058 9.24007 6.19058C9.24007 6.28018 9.23607 6.38018 9.23607 6.48178C9.22087 7.05058 9.20087 7.69138 9.60247 7.95458C9.65456 7.98703 9.7147 8.00421 9.77607 8.00418C9.91527 8.00418 10.3321 8.00418 11.4625 6.06418C11.9585 5.20738 12.3425 4.19698 12.3689 4.12098C12.3913 4.07858 12.4585 3.95938 12.5401 3.91138C12.5981 3.8805 12.6631 3.86507 12.7289 3.86658H15.4449C15.7409 3.86658 15.9417 3.91138 15.9809 4.02338C16.0465 4.20498 15.9681 4.75938 14.7281 6.43618C14.5193 6.71538 14.3361 6.95698 14.1753 7.16818C13.0513 8.64338 13.0513 8.71778 14.2417 9.83778Z" fill="#232323"/>
</g>
<defs>
<clipPath id="clip0">
<rect width="16" height="16" fill="white"/>
</clipPath>
</defs>
</svg>
