<svg width="102" height="26" viewBox="0 0 102 26" fill="none" xmlns="http://www.w3.org/2000/svg">
<path d="M38.968 15.128V19H37.384V15.096L32.936 7.8H34.648L38.232 13.704L41.832 7.8H43.416L38.968 15.128ZM47.4943 19.096C46.6516 19.096 45.8943 18.9093 45.2223 18.536C44.5503 18.1627 44.0223 17.6507 43.6383 17C43.2649 16.3387 43.0783 15.592 43.0783 14.76C43.0783 13.928 43.2649 13.1867 43.6383 12.536C44.0223 11.8747 44.5503 11.3627 45.2223 11C45.8943 10.6267 46.6516 10.44 47.4943 10.44C48.3369 10.44 49.0889 10.6267 49.7503 11C50.4223 11.3627 50.9449 11.8747 51.3183 12.536C51.7023 13.1867 51.8943 13.928 51.8943 14.76C51.8943 15.592 51.7023 16.3387 51.3183 17C50.9449 17.6507 50.4223 18.1627 49.7503 18.536C49.0889 18.9093 48.3369 19.096 47.4943 19.096ZM47.4943 17.752C48.0383 17.752 48.5236 17.6293 48.9503 17.384C49.3876 17.128 49.7289 16.776 49.9743 16.328C50.2196 15.8693 50.3423 15.3467 50.3423 14.76C50.3423 14.1733 50.2196 13.656 49.9743 13.208C49.7289 12.7493 49.3876 12.3973 48.9503 12.152C48.5236 11.9067 48.0383 11.784 47.4943 11.784C46.9503 11.784 46.4596 11.9067 46.0223 12.152C45.5956 12.3973 45.2543 12.7493 44.9983 13.208C44.7529 13.656 44.6303 14.1733 44.6303 14.76C44.6303 15.3467 44.7529 15.8693 44.9983 16.328C45.2543 16.776 45.5956 17.128 46.0223 17.384C46.4596 17.6293 46.9503 17.752 47.4943 17.752ZM61.9225 10.52V19H60.4665V17.72C60.1572 18.1573 59.7465 18.4987 59.2345 18.744C58.7332 18.9787 58.1838 19.096 57.5865 19.096C56.4558 19.096 55.5652 18.7867 54.9145 18.168C54.2638 17.5387 53.9385 16.616 53.9385 15.4V10.52H55.4745V15.224C55.4745 16.0453 55.6718 16.6693 56.0665 17.096C56.4612 17.512 57.0265 17.72 57.7625 17.72C58.5732 17.72 59.2132 17.4747 59.6825 16.984C60.1518 16.4933 60.3865 15.8 60.3865 14.904V10.52H61.9225ZM69.6146 18.504C69.3906 18.696 69.1133 18.8453 68.7826 18.952C68.452 19.048 68.1106 19.096 67.7586 19.096C66.9053 19.096 66.244 18.8667 65.7746 18.408C65.3053 17.9493 65.0706 17.2933 65.0706 16.44V11.784H63.6306V10.52H65.0706V8.664H66.6066V10.52H69.0386V11.784H66.6066V16.376C66.6066 16.8347 66.7186 17.1867 66.9426 17.432C67.1773 17.6773 67.508 17.8 67.9346 17.8C68.404 17.8 68.804 17.6667 69.1346 17.4L69.6146 18.504ZM79.3756 10.52V19H77.9196V17.72C77.6103 18.1573 77.1996 18.4987 76.6876 18.744C76.1863 18.9787 75.637 19.096 75.0396 19.096C73.909 19.096 73.0183 18.7867 72.3676 18.168C71.717 17.5387 71.3916 16.616 71.3916 15.4V10.52H72.9276V15.224C72.9276 16.0453 73.125 16.6693 73.5196 17.096C73.9143 17.512 74.4796 17.72 75.2156 17.72C76.0263 17.72 76.6663 17.4747 77.1356 16.984C77.605 16.4933 77.8396 15.8 77.8396 14.904V10.52H79.3756ZM86.7958 10.44C87.6171 10.44 88.3531 10.6213 89.0038 10.984C89.6544 11.3467 90.1611 11.8533 90.5238 12.504C90.8971 13.1547 91.0838 13.9067 91.0838 14.76C91.0838 15.6133 90.8971 16.3707 90.5238 17.032C90.1611 17.6827 89.6544 18.1893 89.0038 18.552C88.3531 18.9147 87.6171 19.096 86.7958 19.096C86.1664 19.096 85.5904 18.9733 85.0677 18.728C84.5451 18.4827 84.1131 18.1253 83.7718 17.656V19H82.2998V7.128H83.8358V11.8C84.1771 11.352 84.6038 11.016 85.1158 10.792C85.6278 10.5573 86.1878 10.44 86.7958 10.44ZM86.6678 17.752C87.2118 17.752 87.6971 17.6293 88.1238 17.384C88.5611 17.128 88.9024 16.776 89.1478 16.328C89.4038 15.8693 89.5318 15.3467 89.5318 14.76C89.5318 14.1733 89.4038 13.656 89.1478 13.208C88.9024 12.7493 88.5611 12.3973 88.1238 12.152C87.6971 11.9067 87.2118 11.784 86.6678 11.784C86.1344 11.784 85.6491 11.9067 85.2118 12.152C84.7744 12.3973 84.4331 12.7493 84.1878 13.208C83.9424 13.656 83.8198 14.1733 83.8198 14.76C83.8198 15.3467 83.9424 15.8693 84.1878 16.328C84.4331 16.776 84.7744 17.128 85.2118 17.384C85.6491 17.6293 86.1344 17.752 86.6678 17.752ZM100.87 14.808C100.87 14.9253 100.859 15.08 100.838 15.272H93.958C94.054 16.0187 94.3793 16.6213 94.934 17.08C95.4993 17.528 96.198 17.752 97.03 17.752C98.0433 17.752 98.8593 17.4107 99.478 16.728L100.326 17.72C99.942 18.168 99.462 18.5093 98.886 18.744C98.3207 18.9787 97.686 19.096 96.982 19.096C96.086 19.096 95.2913 18.9147 94.598 18.552C93.9047 18.1787 93.366 17.6613 92.982 17C92.6087 16.3387 92.422 15.592 92.422 14.76C92.422 13.9387 92.6033 13.1973 92.966 12.536C93.3393 11.8747 93.846 11.3627 94.486 11C95.1367 10.6267 95.8673 10.44 96.678 10.44C97.4887 10.44 98.2087 10.6267 98.838 11C99.478 11.3627 99.974 11.8747 100.326 12.536C100.689 13.1973 100.87 13.9547 100.87 14.808ZM96.678 11.736C95.942 11.736 95.3233 11.96 94.822 12.408C94.3313 12.856 94.0433 13.4427 93.958 14.168H99.398C99.3127 13.4533 99.0193 12.872 98.518 12.424C98.0273 11.9653 97.414 11.736 96.678 11.736Z" fill="#DB1E39"/>
<g clip-path="url(#clip0)">
<path d="M27.8162 6.11944C27.6531 5.51651 27.3348 4.96683 26.8932 4.52514C26.4515 4.08346 25.9018 3.76518 25.2989 3.602C23.0916 3 14.2078 3 14.2078 3C14.2078 3 5.32358 3.01822 3.11624 3.62022C2.5133 3.78341 1.96363 4.10171 1.52196 4.54341C1.08029 4.98512 0.762046 5.53482 0.59891 6.13778C-0.0687564 10.0598 -0.327756 16.036 0.617244 19.8011C0.780396 20.4041 1.09865 20.9537 1.54032 21.3954C1.98198 21.8371 2.53165 22.1554 3.13458 22.3186C5.34191 22.9206 14.2259 22.9206 14.2259 22.9206C14.2259 22.9206 23.1098 22.9206 25.317 22.3186C25.92 22.1554 26.4697 21.8371 26.9113 21.3954C27.353 20.9538 27.6713 20.4041 27.8345 19.8011C28.5387 15.8736 28.7557 9.90111 27.8162 6.11956V6.11944Z" fill="#FF0000"/>
<path d="M11.3809 17.229L18.7507 12.9603L11.381 8.69165L11.3809 17.229Z" fill="white"/>
</g>
<defs>
<clipPath id="clip0">
<rect width="28.4444" height="20" fill="white" transform="translate(0 3)"/>
</clipPath>
</defs>
</svg>
