<?xml version="1.0" standalone="no"?>
<!DOCTYPE svg PUBLIC "-//W3C//DTD SVG 1.1//EN" "http://www.w3.org/Graphics/SVG/1.1/DTD/svg11.dtd">
<svg xmlns="http://www.w3.org/2000/svg">
<metadata>Copyright (C) 2021 by original authors @ fontello.com</metadata>
<defs>
<font id="icon" horiz-adv-x="1000" >
<font-face font-family="icon" font-weight="400" font-stretch="normal" units-per-em="1000" ascent="850" descent="-150" />
<missing-glyph horiz-adv-x="1000" />
<glyph glyph-name="arrow-diag" unicode="&#xe800;" d="M268 376l270 0 0-270 83 0 0 353-353 0 0-83z" horiz-adv-x="1000" />

<glyph glyph-name="arrow-down" unicode="&#xe801;" d="M691 489l-191-191-191 191-59-59 250-250 250 250-59 59z" horiz-adv-x="1000" />

<glyph glyph-name="arrow-left" unicode="&#xe802;" d="M642 541l-191-191 191-191-59-59-250 250 250 250 59-59z" horiz-adv-x="1000" />

<glyph glyph-name="arrow-right" unicode="&#xe803;" d="M358 541l191-191-191-191 59-59 250 250-250 250-59-59z" horiz-adv-x="1000" />

<glyph glyph-name="arrow-top" unicode="&#xe804;" d="M309 180l191 191 191-191 59 59-250 250-250-250 59-59z" horiz-adv-x="1000" />

<glyph glyph-name="ask" unicode="&#xe805;" d="M500 788c-242 0-437-196-437-438 0-242 195-438 437-438 242 0 438 196 438 438 0 242-196 438-438 438z m0-801c-201 0-363 162-363 363 0 201 162 363 363 363 201 0 363-162 363-363 0-201-162-363-363-363z m109 554c-29 25-68 40-109 40-41 0-80-15-109-40-30-27-47-63-47-101v-8c0-4 3-7 8-7h46c5 0 8 3 8 7v8c0 43 42 78 94 78 52 0 94-35 94-78 0-30-22-58-55-71-21-8-38-22-51-40-13-19-19-41-19-63v-21c0-5 3-8 8-8h46c5 0 8 3 8 8v22c0 9 3 18 9 26 5 8 13 14 21 17 58 23 95 73 95 130 0 38-16 74-47 101z m-148-406c0-10 4-20 11-27 8-8 18-12 28-12 10 0 20 4 28 12 7 7 11 17 11 27 0 11-4 21-11 28-8 7-18 11-28 11-10 0-20-4-28-11-7-7-11-17-11-28z" horiz-adv-x="1000" />

<glyph glyph-name="ballet" unicode="&#xe806;" d="M632 850c-10-24-27-38-50-57-40-33-89-73-119-176l66-20c25 83 61 113 97 142 32 26 65 53 79 111h-73z m-58-25c-7 7-16 16-24 25h-85c11-23 33-46 59-73 44-46 99-104 99-167h70c0 91-69 163-119 215z m-319-478c-74-150-74-220-79-304-5-84 13-129 78-150l35-11c64-20 105 6 150 77 45 71 85 128 113 293l-297 95z m-19-344c5 84 6 154 79 304l233-75c2 7 3 13 4 20l-297 95c-74-150-74-220-79-304-5-84 13-129 78-150l2 0c-17 25-22 61-20 110z m293 594c10 33 22 58 34 77-11 6-22 12-35 15-10 4-21 6-32 8-12-22-24-48-33-80l66-20z m-152-445l-38 12c-37 12-67 38-83 73-16 35-16 75-1 110l91 218c0 0 0 0 0 0 13 31 37 56 68 71 32 14 67 16 99 5 33-10 60-32 77-62 17-29 22-64 15-97 0 0 0 0 0 0l-53-230c-9-37-32-70-65-89-34-19-74-23-110-11z m34 408c20 24 53 35 84 25 31-10 51-38 53-69l0 0c0 0 0 0 0-1l-18-56-98-92-118-33 59 141 32-6 6 91z m60-335c-4-4-9-7-14-10-19-11-41-14-62-7l-38 12c-21 7-37 22-47 42-2 5-4 11-5 17l20 31 56 34 153 110-4-30 0 0-33-147-1-1-37 20 12-71z m77 291c1-7 0-14-1-21l-17-71c-6-6-14-13-21-20-70-63-138-105-204-125-3 15-2 30 5 45 0 0 0 0 0 0l4 10c105 42 196 137 234 182z m-152-138c15 10 29 21 42 31-17 61-24 118-27 151-4-6-8-12-11-18l-27-67c1-9 3-19 5-29 5-24 11-46 18-68z m98-113c0 0 0 0 0 0l2 11c-16 26-30 54-41 83-14-10-28-20-42-29 16-40 36-75 58-105 12 11 19 24 23 40z m8 18c-24-166-3-233 18-314 21-81 52-119 120-119h36c68 0 99 38 120 119 21 81 42 148 18 314h-312z m99-314c-22 81-42 148-18 313h-81c-24-165-3-232 18-313 21-81 52-119 120-119h36c8 0 16 0 22 1-52 8-79 46-97 118z m74 722c-6 1-11 1-17 1-19 0-39-3-57-9 14-23 22-48 22-73h70c0 29-7 56-18 81z m3-557h-40c-38 0-75 16-101 44-26 28-38 66-35 104l20 235c0 0 0 0 0 0 3 34 19 66 44 89 25 23 58 35 92 35 34 0 67-12 92-35 25-23 41-55 44-89 0 0 0 0 0 0l20-235c3-38-9-76-35-104-26-28-63-44-101-44z m-92 399c11 29 39 49 72 49 33 0 61-20 72-49l0 0c0-1 0-1 0-1l0-59-65-118-103-67 13 152 33 4-22 89z m159-301c-3-5-6-10-10-14-15-16-35-25-57-25h-40c-22 0-42 9-57 25-4 4-7 9-10 14l9 36 43 50 112 152 6-30 0-1 13-150 0-1-41 8 32-64z m-15 301c2-7 4-14 5-21l6-72c-5-8-9-17-15-26-46-81-99-142-155-182-8 14-11 29-10 45 0 0 0 0 0 0l1 11c88 72 145 191 168 245z m-103-178c11 14 21 28 31 43-35 52-59 104-72 135-2-7-4-14-5-21l-6-72c5-8 9-17 14-26 13-21 25-41 38-59z m128-78c0 0 0 0 0 0l-1 11c-24 20-46 43-65 67-10-14-21-28-31-41 28-33 57-60 87-82 8 14 11 29 10 45z" horiz-adv-x="1000" />

<glyph glyph-name="checklist" unicode="&#xe807;" d="M81-37h419v32h-419c-27 0-49 22-49 49v710c0 26 22 48 49 48h709c27 0 49-22 49-48v-371h32v371c0 44-36 80-81 80h-709c-45 0-81-36-81-80v-710c0-45 36-81 81-81z m-16 807h32v-32h-32v32z m64 0h32v-32h-32v32z m65 0h32v-32h-32v32z m-129-65h741v-32h-741v32z m166-69l-41-41c-35 23-81 16-108-16-26-32-24-79 6-109 29-29 76-31 108-5 32 26 39 73 16 107l41 41-22 23z m-86-157c-27 0-48 22-48 49 0 27 21 48 48 48 7 0 14-1 21-5l-32-32 23-23 32 33c3-7 5-14 5-21 0-27-22-49-49-49z m129 97h274v-32h-274v32z m0-64h113v-33h-113v33z m145 0h226v-33h-226v33z m162 64h161v-32h-161v32z m-350-134l-41-41c-35 23-81 16-108-16-26-32-24-79 6-108 29-30 76-32 108-6 32 27 39 73 16 108l41 41-22 22z m-86-156c-27 0-48 22-48 48 0 27 21 49 48 49 7 0 14-2 21-5l-32-32 23-23 32 32c3-6 5-14 5-21 0-26-22-48-49-48z m129 97h274v-33h-274v33z m0-65h113v-32h-113v32z m145 0h129v-32h-129v32z m162 65h64v-33h-64v33z m-350-134l-41-41c-35 23-81 16-108-16-26-32-24-79 6-109 29-29 76-31 108-5 32 26 39 73 16 107l41 41-22 23z m-86-157c-27 0-48 22-48 49 0 26 21 48 48 48 7 0 14-2 21-5l-32-32 23-23 32 32c3-6 5-13 5-20 0-27-22-49-49-49z m129 97h210v-32h-210v32z m0-64h113v-33h-113v33z m145 0h65v-33h-65v33z m339-259c134 0 242 109 242 242 0 134-108 242-242 242-133 0-242-108-242-242 0-133 109-241 242-242z m0 452c116 0 210-94 210-210 0-115-94-209-210-209-116 0-210 94-210 209 1 116 94 210 210 210z m-98-218l-29-15 32-64c2-5 7-8 12-9 1 0 2 0 2 0 5 0 9 1 12 4l193 194-22 23-178-178-22 45z" horiz-adv-x="1000" />

<glyph glyph-name="close" unicode="&#xe808;" d="M52 695c-29 28-29 75 0 103 28 29 75 29 103 0l345-344 345 344c28 29 75 29 103 0 29-28 29-75 0-103l-344-345 344-345c29-28 29-75 0-103-28-29-75-29-103 0l-345 344-345-344c-28-29-75-29-103 0-29 28-29 75 0 103l344 345-344 345z" horiz-adv-x="1000" />

<glyph glyph-name="competition" unicode="&#xe809;" d="M741 240l-11-60c-1-5 2-11 6-14 5-3 11-4 16-1l53 28 54-28c2-1 5-2 7-2 3 0 6 1 9 3 4 3 6 9 5 14l-10 60 44 43c4 4 5 9 3 15-1 5-6 9-11 10l-61 8-26 55c-3 5-8 8-14 8-5 0-10-3-13-8l-27-55-60-8c-5-1-10-5-12-10-1-6 0-11 4-15l44-43z m36 49c5 0 9 3 11 7l17 35 18-35c2-4 6-7 11-7l38-6-28-27c-3-4-5-8-4-13l7-38-35 18c-2 1-4 1-7 1-2 0-4 0-6-1l-35-18 7 38c1 5-1 9-4 13l-28 27 38 6z m-652 98l-11-60c-1-6 2-11 6-15 5-3 11-3 16-1l53 29 54-29c2-1 5-1 7-1 3 0 6 1 9 2 4 4 6 9 6 15l-11 60 44 42c4 4 5 10 3 15-1 5-6 9-11 10l-61 9-26 54c-3 5-8 9-14 9-5 0-10-4-13-9l-27-54-60-9c-5-1-10-5-12-10-1-5 0-11 4-15l44-42z m36 48c5 1 9 4 11 8l17 35 18-35c2-4 6-7 11-8l38-6-28-27c-3-3-5-8-4-13l7-38-35 18c-2 1-4 2-7 2-2 0-4-1-6-2l-35-18 7 38c1 5-1 10-4 13l-28 27 38 6z m255 318v-18c0-41 30-76 70-83v-41c-36-6-64-34-70-70h-21c-19 0-19-29 0-29h210c19 0 19 29 0 29h-21c-6 35-34 63-69 70v41c40 7 70 42 70 83v18c19 3 34 10 45 23 21 25 16 60 16 62-1 7-7 12-14 12h-61-1-139c-1 0-1 0-1 0 0 0 0 0 0 0h-61c-8 0-14-5-15-12 0-2-5-37 17-62 10-13 26-21 45-23z m138-212h-109c7 24 29 42 55 42 26 0 48-18 54-42z m53 254c-5-6-12-10-22-12v38h32c-1-8-3-18-10-26z m-162 26h111v-52c0-1 0-2 0-2 0-1 0-1 0-2v-30c0-30-25-55-55-55-31 0-56 25-56 55v86z m-29 0v-38c-10 1-18 5-23 12-7 7-9 18-10 26h33z m568-942h-22v192c0 21-17 37-38 37h-251c-4 0-7 0-11-1v309c0 20-16 37-37 37h-252c-20 0-37-17-37-37v-156c-3 1-6 1-9 1h-251c-21 0-38-17-38-37v-115c0-19 29-19 29 0v115c0 4 4 8 9 8h251c5 0 9-4 9-8v-345h-269v158c0 19-29 19-29 0v-158h-22c-8 0-15-6-15-14 0-8 7-15 15-15h968c9 0 15 7 15 15 0 8-6 14-15 14z m-619 0v345 192c0 4 4 8 8 8h252c4 0 8-4 8-8v-537h-268v0z m299 0v192c0 4 4 8 9 8h251c5 0 9-4 9-8v-192h-269z" horiz-adv-x="1000" />

<glyph glyph-name="cup" unicode="&#xe80a;" d="M662 95h-324c-2 0-4 0-6 1-2 1-4 3-5 5-2 2-2 4-2 6 0 3 0 5 1 7 14 22 33 40 55 52 18 12 33 29 43 48 10 19 15 40 15 62-4 82-77 155-77 156-1 0-1 1-1 1-9 11-17 23-24 36-45 78-64 189-72 267-4 43-5 72-5 73 0 2 0 4 1 5 1 2 2 4 3 5 1 1 3 2 4 3 2 1 4 1 5 1h160c4 0 7-1 9-4 3-2 4-6 4-9 0-4-1-7-4-10-2-3-5-4-9-4h-145c0-12 1-32 4-57 6-62 23-178 68-257 6-11 13-22 21-31 8-9 81-84 85-174 0-26-6-52-18-76-12-23-30-42-52-57-10-7-20-14-29-22h266c-9 8-19 15-29 22-22 14-40 34-52 57-12 24-18 50-17 76 3 90 76 166 84 174 8 9 15 20 21 31 45 79 62 195 68 257 3 25 4 45 5 57h-65c-3 0-7 1-9 4-3 3-4 6-4 10 0 3 1 7 4 9 2 3 6 4 9 4h79c2 0 3 0 5-1 2-1 3-2 4-3 2-1 3-3 3-4 1-2 1-4 1-6 0-1 0-30-5-73-8-78-27-189-72-267-7-13-14-25-23-36-1 0-1-1-1-1-1-1-74-74-77-156-1-22 4-43 14-62 10-19 25-36 43-48 22-12 41-30 55-52 1-2 2-4 1-7 0-2 0-4-2-6-1-2-2-4-5-5-2-1-4-1-6-1h0z m-95 701h-53c-4 0-7 1-10 4-2 3-4 6-4 10 0 3 2 7 4 9 3 3 6 4 10 4h53c4 0 7-1 10-4 2-2 4-6 4-9 0-4-2-7-4-10-3-3-6-4-10-4z m95-767h-324c-3 0-7 2-9 4-3 3-4 6-4 10v65c0 4 1 7 4 10 2 2 6 3 9 3h324c3 0 7-1 9-3 3-3 4-6 4-10v-65c0-4-1-7-4-10-2-2-6-4-9-4z m-310 27h296v38h-296v-38z m337-179h-383c-7 0-13 3-18 7-5 5-8 12-8 18v129c0 7 3 13 8 18 5 5 11 7 18 7h383c7 0 13-2 18-7 5-5 8-11 8-18v-129c0-6-3-13-8-18-5-4-11-7-18-7z m-382 27h380v125h-380v-125z m238 49h-90c-3 0-7 1-9 4-3 3-4 6-4 10 0 3 1 7 4 9 2 3 6 4 9 4h90c4 0 7-1 9-4 3-2 4-6 4-9 0-4-1-7-4-10-2-3-5-4-9-4z m12 575c-2 0-5 1-6 2l-51 26-50-26c-3-2-5-2-8-2-2 0-5 1-7 3-2 1-3 3-4 5-1 3-1 5-1 8l10 56-41 40c-2 2-3 4-4 6-1 3 0 5 0 8 1 2 3 4 4 6 2 1 5 3 7 3l57 8 25 51c1 2 3 4 5 5 2 2 5 2 7 2 2 0 5 0 7-2 2-1 4-3 5-5l25-51 57-8c2 0 5-2 7-3 2-2 3-4 4-6 1-3 1-5 0-8-1-2-2-4-4-6l-40-40 9-56c1-2 0-4 0-6-1-2-2-4-3-5-1-2-3-3-4-4-2-1-4-1-6-1l0 0z m-57 57c2 0 4-1 6-2l33-17-6 36c-1 3 0 5 0 7 1 2 2 4 4 5l26 26-36 5c-3 1-5 2-6 3-2 1-4 3-5 5l-16 33-16-33c-1-2-3-4-4-5-2-1-4-2-6-3l-37-5 27-26c1-1 2-3 3-5 1-2 1-4 0-7l-6-36 33 17c2 1 4 2 6 2z m152-123c-4 0-7 1-9 3-3 2-4 5-5 8 0 4 0 7 2 10 2 2 5 4 8 5 107 31 159 81 183 118 10 13 15 28 17 44 1 16-2 32-9 46-31 58-109 30-113 29-1-1-3-1-5-1-2 0-3 1-5 1-2 1-3 2-4 3-1 2-2 3-3 5-1 1-1 3-1 5 0 2 1 4 1 5 1 2 2 3 3 4 2 2 3 3 5 3 36 14 112 22 146-41 9-19 13-40 12-61-2-20-9-40-21-57-27-41-84-96-199-129-1 0-2 0-3 0z m-304 0c-1 0-2 0-3 0-115 33-172 88-199 129-12 17-19 37-21 57-1 21 3 42 12 61 34 63 110 54 146 41 2 0 3-1 5-3 1-1 2-2 3-4 0-1 1-3 1-5 0-2 0-4-1-5-1-2-2-3-3-5-1-1-2-2-4-3-2 0-3-1-5-1-2 0-4 0-5 1-4 1-82 29-113-29-7-14-10-30-9-46 2-16 7-31 17-44 24-37 76-87 183-118 3-1 6-3 8-5 2-3 2-6 2-10-1-3-2-6-5-8-2-2-5-3-9-3v0z" horiz-adv-x="1000" />

<glyph glyph-name="fb" unicode="&#xe80b;" d="M859 741h-718c-18 0-32-14-32-32v-718c0-18 14-32 32-32h718c18 0 32 14 32 32v718c0 18-14 32-32 32z m-90-228h-62c-49 0-59-24-59-58v-75h117l-15-118h-102v-303h-121v303h-102v118h102v87c0 101 61 156 151 156 43 0 80-4 91-5v-105h0z" horiz-adv-x="1000" />

<glyph glyph-name="guitar" unicode="&#xe80c;" d="M695 643l-175-176-16-84 26-26 72 14 181 183-88 89z m-184-350l-71 71 24 121c7 32-12 65-43 75-34 8-63-4-78-30l-105-192-160-67c-15-7-29-16-41-28-49-50-49-130 0-180l175-176c24-25 57-37 89-37 33 0 65 12 90 37 11 12 21 26 27 41l67 161 191 106c27 15 40 48 30 78-9 28-34 45-62 45-23 1-133-25-133-25z m-230-258l-97 98 41 42 98-98-42-42z m98 98l-98 98 42 42 97-98-41-42z m604 700c-16 17-42 22-64 12l-162-76-20-84 88-89 83 20 31 92 44 45c23 22 23 58 0 80z" horiz-adv-x="1000" />

<glyph glyph-name="info" unicode="&#xe80d;" d="M500 788c-242 0-437-196-437-438 0-242 195-438 437-438 242 0 438 196 438 438 0 242-196 438-438 438z m0-801c-201 0-363 162-363 363 0 201 162 363 363 363 201 0 363-162 363-363 0-201-162-363-363-363z m-47 535c0-13 5-24 14-33 9-9 21-14 33-14 12 0 24 5 33 14 9 9 14 20 14 33 0 12-5 24-14 33-9 9-21 14-33 14-12 0-24-5-33-14-9-9-14-21-14-33z m70-109h-46c-5 0-8-4-8-8v-266c0-4 3-8 8-8h46c5 0 8 4 8 8v266c0 4-3 8-8 8z" horiz-adv-x="1000" />

<glyph glyph-name="insta" unicode="&#xe80e;" d="M873 504c-1 32-6 63-18 92-9 25-24 48-43 67-19 19-41 33-66 43-29 11-60 17-91 17-40 2-53 3-155 3-102 0-115 0-155-3-31 0-61-6-91-17-24-10-47-24-66-43-19-19-34-42-43-67-11-29-17-60-18-91-2-40-2-53-2-154 0-102 0-115 2-155 1-31 7-62 18-91 9-25 24-48 43-66 19-19 42-34 66-44 30-11 60-18 92-19 40-1 52-2 154-2 102 0 115 0 155 2 31 1 62 7 91 18 25 10 47 24 66 43 19 19 34 42 43 67 11 29 17 60 18 91 2 40 2 53 2 154 0 102 0 115-2 155z m-373-346c-107 0-193 86-193 193 0 106 86 192 193 192 51 0 100-20 136-56 36-36 56-85 56-136 0-51-20-100-56-136-36-36-85-57-136-57z m200 348c-25 0-45 20-45 45 0 6 1 11 4 17 2 5 5 10 9 14 4 5 9 8 15 10 5 2 11 4 17 4 6 0 12-2 17-4 6-2 11-5 15-10 4-4 7-9 10-14 2-6 3-11 3-17 0-25-20-45-45-45z m-200-280c69 0 125 56 125 125 0 69-56 125-125 125-69 0-125-56-125-125 0-69 56-125 125-125z" horiz-adv-x="1000" />

<glyph glyph-name="menu-1" unicode="&#xe80f;" d="M0 771c0 44 35 79 79 79h1158c43 0 79-35 79-79 0-43-36-79-79-79h-1158c-44 0-79 36-79 79z m0-421c0 44 35 79 79 79h1158c43 0 79-35 79-79 0-44-36-79-79-79h-1158c-44 0-79 35-79 79z m79-342c-44 0-79-36-79-79 0-44 35-79 79-79h1158c43 0 79 35 79 79 0 43-36 79-79 79h-1158z" horiz-adv-x="1316" />

<glyph glyph-name="mic" unicode="&#xe810;" d="M61 305c-5-3-9-9-10-15-2-7-1-13 2-19l65-112c7-12 22-17 34-11l198 96v-344h100v393l204 98-131 227-462-313z m862 393c-27 47-71 81-123 95-52 14-108 6-154-21-46-26-76-68-90-114l148-258c48-11 99-5 145 21 46 27 80 71 94 123 14 52 7 108-20 154z" horiz-adv-x="1000" />

<glyph glyph-name="odnoklassniki" unicode="&#xe811;" d="M197 313c-26-50 3-74 69-115 57-35 134-47 184-52-20-20 74 70-196-190-58-55 34-143 92-89l155 150c59-58 116-112 154-150 58-54 150 33 93 89-4 4-210 201-197 189 50 5 127 19 183 53l-1 0c67 41 96 65 70 115-15 29-56 53-110 11 0 0-74-56-193-56-119 0-192 56-192 56-55 42-96 18-111-11z m303 31c145 0 263 113 263 253 0 140-118 253-263 253-145 0-263-113-263-253 0-140 118-253 263-253z m0 378c71 0 129-56 129-125 0-69-58-125-129-125-71 0-129 56-129 125 0 69 58 125 129 125z" horiz-adv-x="1000" />

<glyph glyph-name="open-book" unicode="&#xe812;" d="M153 732c0 0 0 0 0 0-9 0-18-4-25-10-7-7-11-16-11-26v-536c0-20 16-36 36-36 83 0 223-18 319-118v561c0 7-1 13-5 18-79 127-230 147-314 147z m730-572v536c0 10-4 19-11 26-6 6-15 10-25 10 0 0 0 0 0 0-83 0-235-20-314-147-3-5-5-11-5-18v-561c96 100 236 118 319 118 20 0 36 16 36 36z m81 448h-26v-448c0-51-41-92-91-92-71 0-187-14-270-92 143 35 293 12 379-7 11-3 22 0 31 7 8 7 13 17 13 28v569c0 19-16 35-36 35z m-902-448v448h-26c-20 0-36-16-36-35v-569c0-11 5-21 13-28 9-7 20-10 31-7 86 19 236 42 379 7-83 78-199 92-270 92-50 0-91 41-91 92z" horiz-adv-x="1000" />

<glyph glyph-name="painting" unicode="&#xe813;" d="M500-150c-90 0-174 22-251 67-77 44-137 105-182 182-45 77-67 161-67 251 0 91 22 174 67 251 45 77 105 138 182 182 77 45 161 67 251 67 73 0 122-9 148-27 27-18 40-50 40-98 0-21-5-41-15-60-10-18-21-34-32-45-12-12-23-25-33-40-9-15-14-29-14-42 0-63 31-94 94-94 13 0 27 5 42 14 15 10 28 21 40 33 11 11 27 22 45 32 19 10 39 15 60 15 47 0 79-14 98-40 18-27 27-76 27-148 0-68-13-132-39-194-27-62-62-115-107-160-45-45-98-80-160-107-61-26-126-39-194-39z m-219 188c26 0 48 9 67 27 18 18 27 40 27 66 0 26-9 48-27 67-19 18-41 27-67 27-26 0-48-9-66-27-18-19-27-41-27-67 0-26 9-48 27-66 18-18 40-27 66-27z m-62 500c-26 0-48-10-67-28-18-18-27-40-27-66 0-26 9-48 27-67 19-18 41-27 67-27 26 0 48 9 66 27 18 19 28 41 28 67 0 26-10 48-28 66-18 18-40 28-66 28z m187 187c-26 0-48-9-66-27-18-19-27-41-27-67 0-26 9-48 27-66 18-18 40-27 66-27 26 0 48 9 67 27 18 18 27 40 27 66 0 26-9 48-27 67-19 18-41 27-67 27z m188-562c-26 0-48-10-67-28-18-18-27-40-27-66 0-26 9-48 27-67 19-18 41-27 67-27 26 0 48 9 66 27 18 19 28 41 28 67 0 26-10 48-28 66-18 18-40 28-66 28z m187 187c-26 0-48-9-66-27-18-19-27-41-27-67 0-26 9-48 27-66 18-18 40-27 66-27 26 0 48 9 67 27 18 18 27 40 27 66 0 26-9 48-27 67-19 18-41 27-67 27z" horiz-adv-x="1000" />

<glyph glyph-name="phone" unicode="&#xe814;" d="M749-150c-5 0-9 0-14 0-62 4-126 22-199 58-130 63-245 153-339 267-77 90-131 181-167 278-16 44-34 102-29 169 4 47 22 86 54 117 15 13 29 28 43 42 10 10 19 20 29 29 53 53 128 53 181 1 14-13 26-26 39-39l78-78c54-55 54-130 0-185l-12-12c-14-14-27-28-41-41 11-22 26-44 46-68 54-66 108-117 168-154 6-4 12-7 18-10 18 18 35 36 53 54 54 53 128 53 182 0l12-12c35-35 70-70 105-105 53-54 53-130 0-185-8-8-16-15-25-23-13-14-27-27-40-41-36-41-84-62-142-62z m-531 889c-4 0-8-2-13-8-10-9-19-19-29-28-14-15-29-30-45-45-12-12-18-25-20-44-2-35 5-73 23-122 31-85 79-165 147-246 85-101 187-181 303-238 61-30 109-44 157-47 30-2 51 6 68 24 14 17 30 32 45 47 8 8 15 15 23 23 12 12 11 17 0 27-34 36-69 71-104 105l-12 12c-10 10-15 10-26 0-24-24-48-48-71-72-24-25-58-30-87-13-5 2-11 5-16 8-12 5-23 11-34 18-70 44-134 102-195 178-33 41-57 78-73 118-12 28-6 58 16 80 20 20 39 39 59 59l12 12c12 12 12 17 0 29l-77 77c-13 13-25 26-38 39-5 5-9 7-13 7z" horiz-adv-x="1000" />

<glyph glyph-name="plus" unicode="&#xe815;" d="M985 277h-402v-392h-136v392h-401v128h401v395h136v-395h402v-128z" horiz-adv-x="1000" />

<glyph glyph-name="ruler" unicode="&#xe816;" d="M937 206l34 34c27 27 27 70 0 97l-27 28c-27 26-70 26-97 0l-35-35 125-124z m-373-125l207 208 124-125-207-207-124 124z m-35-47l-61-134c-5-11-3-24 6-33 6-5 13-8 21-8 4 0 8 1 12 2l133 61-111 112z m462 642l-165 165c-12 12-30 12-42 0l-775-775c-12-12-12-30 0-42l165-165c6-6 14-9 21-9 8 0 15 3 21 9l58 58-76 76c-11 11-11 30 0 41 12 12 30 12 42 0l76-76 35 36-62 62c-11 12-11 30 0 42 12 11 30 11 42 0l62-62 36 35-76 76c-12 12-12 30 0 42 11 11 30 11 41 0l76-76 36 36-62 62c-12 11-12 30 0 41 11 12 30 12 41 0l62-62 36 36-76 76c-11 11-11 30 0 41 11 12 30 12 41 0l76-76 36 36-62 62c-11 12-11 30 0 42 11 11 30 11 41 0l63-63 35 36-76 76c-11 12-11 30 0 41 12 12 30 12 42 0l76-75 35 35-62 62c-11 12-11 30 0 42 12 11 30 11 42 0l62-62 135 135c12 12 12 30 0 42z m-162-38c-11-11-30-11-41 0-11 11-11 30 0 41 11 12 30 12 41 0 12-11 12-30 0-41z" horiz-adv-x="1000" />

<glyph glyph-name="time-management" unicode="&#xe817;" d="M315 224c0 0-1 1-1 1-1 2-2 3-2 3-1 1-2 2-2 2-1 1-2 1-4 2 0 0 0 0-1 1 0 0 0 0-1 0-1 0-2 0-4 0 0 0-1 0-2 0 0 0 0 0 0 0-80-14-158-41-229-79-10-6-18-14-22-24-46-102-47-257-47-263 0-10 8-17 17-17h800c9 0 16 7 16 17 0 6 0 161-46 263-5 10-13 18-22 24-72 38-149 65-229 79 0 0-1 0-1 0 0 0-1 0-2 0-1 0-3 0-4 0 0 0-1 0-1 0 0-1-1-1-1-1-1-1-2-1-3-2-1 0-2-1-2-1-1-1-2-2-3-3 0-1 0-2-1-2 0 0 0-1 0-1l-101-246-102 246c0 0 0 0 0 1z m86-297c2-4 5-7 9-9h0c2-1 5-1 7-1 2 0 4 0 6 1h0c4 2 7 5 9 9l100 242 32-98-59-59c-3-3-5-8-5-12v-73l-83-42-84 42v73c0 4-1 9-4 12l-60 59 33 98 99-242 0 0z m-324 190c2 3 4 5 7 7 61 32 125 56 191 71l-41-123c-2-6 0-13 4-17l62-62v-76c0-7 4-13 9-15l37-19h-312c1 43 8 156 43 234z m679 0c35-78 42-191 44-234h-313l37 19c6 2 9 8 9 15v76l62 62c5 4 6 11 4 17l-41 123c67-15 131-39 191-71 3-2 6-4 7-7v0z m-323 16v17c0 9-7 17-16 17-9 0-17-8-17-17v-17c0-9 8-16 17-16 9 0 16 7 16 16z m435 467h-82c-6 17-19 30-36 36v101c0 9-7 17-17 17-9 0-16-8-16-17v-101c-25-8-41-32-38-58 2-26 23-47 49-49 26-3 50 13 58 38h82c9 0 17 7 17 16 0 10-8 17-17 17z m-135-38c-11 0-21 10-21 21 0 12 9 22 21 22h0c12 0 22-10 22-21v-1c0-12-10-21-22-21z m231 155c-47 81-134 132-228 133h-3c-95 0-183-51-231-133-5-11-11-21-15-32-21 15-41 15-104 15-68 0-106-56-123-89-7-14-10-29-10-45v-70c-16-7-33-24-33-63-2-33 23-61 55-65 12-24 21-48 27-74 2-13 10-25 21-33l78-52c11-7 26-7 37 0l78 52c12 8 19 20 22 33 6 26 15 50 26 74 4 1 8 2 12 3 9-7 18-13 27-19 128-73 291-29 364 98 48 83 48 184 0 267h0z m-429-326c-14-29-26-59-33-91-1-4-3-9-7-11l-78-52-78 52c-4 2-7 7-7 11-8 32-19 62-34 91-3 5-8 9-15 9-9-1-17 3-24 9-6 7-10 15-9 24 0 31 14 34 17 34 4 0 8 1 12 5 3 3 4 7 4 11v83c0 11 3 21 7 30 13 26 43 71 93 71 77 0 77 0 99-23l6-6c3-3 8-5 12-5 2 0 50 0 50-66v-84c0-8 6-15 15-16 0 0 1 0 1 0 3 0 17-3 17-34 2-12-5-23-15-28-6-3-12-5-18-5-6 0-12-3-15-9z m329 0l-1 1c-3 5-8 8-14 8-6 0-12-3-15-8-3-5-3-12 0-17l1-1c-27-13-55-21-85-23v2c0 9-7 16-17 16-9 0-16-7-16-16v-2c-35 2-70 13-100 30-5 3-10 6-15 9 10 13 15 28 15 43 0 39-18 56-34 63v71c0 66-38 92-68 98 3 7 6 14 9 20l1-1c5-3 12-3 17 0 5 3 8 9 8 15 0 6-3 11-8 14l-1 1c16 24 37 46 62 62l1-1c4-8 14-11 22-6 8 4 11 15 6 23l-1 1c27 13 56 21 86 23v-2c0-9 7-17 16-17 10 0 17 8 17 17v2c30-2 59-10 85-23l-1-1c-3-6-3-12 0-17 3-5 9-9 15-9 6 0 11 4 14 9l1 1c24-16 46-38 62-62l-1-1c-5-3-9-8-9-14 0-6 4-12 9-15 5-3 11-3 17 0l1 1c13-26 21-55 23-85h-2c-9 0-17-7-17-17 0-9 8-16 17-16h2c-2-30-10-59-23-86l-1 1c-6 3-12 3-17 1-5-3-9-9-8-15 0-6 3-11 8-14l1-1c-16-25-38-46-62-62h0z" horiz-adv-x="1000" />

<glyph glyph-name="vk" unicode="&#xe818;" d="M890 235c0 0 81-80 101-117 0 0 1-1 1-1 8-14 10-25 6-33-7-13-30-19-37-20h-143c-10 0-31 3-56 20-19 14-38 36-57 57-28 33-52 61-76 61-3 0-6-1-9-2-18-6-42-32-42-102 0-21-17-34-29-34h-65c-23 0-139 8-242 117-126 132-239 399-240 401-7 18 8 27 24 27h144c19 0 26-12 30-22 5-12 24-60 55-115 50-88 81-123 106-123 4 0 9 1 13 3 32 18 26 133 25 156 0 5 0 52-17 74-12 17-32 23-44 25 3 5 10 12 19 16 22 11 62 13 101 13h22c43-1 54-3 70-7 31-8 32-28 29-98-1-19-1-42-1-68 0-5-1-12-1-18-1-36-2-76 23-92 3-2 7-3 11-3 9 0 35 0 105 121 31 54 55 117 57 121 2 3 6 11 11 14 3 2 7 2 12 2h169c19 0 31-2 34-9 4-12-1-46-78-151-13-18-25-33-35-46-70-92-70-97 4-167z" horiz-adv-x="1000" />

<glyph glyph-name="plus-circle" unicode="&#xe819;" d="M933 99c-45-77-105-137-182-182-77-45-160-67-251-67-91 0-174 22-251 67-77 45-137 105-182 182-45 77-67 160-67 251 0 91 22 174 67 251 45 77 105 137 182 182 77 45 160 67 251 67 91 0 174-22 251-67 77-45 137-105 182-182 45-77 67-160 67-251 0-91-22-174-67-251z m-141 293c0 11-4 21-13 29-8 8-18 12-29 12h-167v167c0 11-4 21-12 29-8 9-18 13-29 13h-84c-11 0-21-4-29-13-8-8-12-18-12-29v-167h-167c-11 0-21-4-29-12-8-8-13-18-13-29v-84c0-11 5-21 13-29 8-8 18-12 29-12h167v-167c0-11 4-21 12-29 8-8 18-13 29-13h84c11 0 21 5 29 13 8 8 12 18 12 29v167h167c11 0 21 4 29 12 9 8 13 18 13 29v84z" horiz-adv-x="1000" />

<glyph glyph-name="user" unicode="&#xe81a;" d="M556 383c38 20 69 51 91 88 22 37 34 79 33 122 1 62-23 121-66 166-43 44-102 69-164 70-62-1-121-26-164-70-43-45-67-104-66-166 0-43 11-85 33-122 22-37 53-68 91-88-81-23-152-72-203-139-51-67-78-149-78-234v-80c0-16 6-31 17-42 11-11 26-17 42-17h657c15 0 30 6 41 17 11 11 18 26 18 42v80c0 85-28 167-79 234-50 67-122 116-203 139z m-295 210c0 51 19 100 54 136 36 37 84 58 135 59 51-1 99-22 135-59 35-36 54-85 54-136 0-51-19-100-54-137-36-36-84-57-135-58-51 1-99 22-135 58-35 37-54 86-54 137z m535-663c0-5-2-9-5-12-3-4-8-6-12-6h-657c-5 0-9 2-13 6-3 3-5 7-5 12v80c0 92 37 180 102 245 64 65 152 101 244 101 92 0 180-36 245-101 64-65 101-153 101-245v-80z" horiz-adv-x="867" />

<glyph glyph-name="users" unicode="&#xe81b;" d="M800 455c26 13 49 32 67 55 18 23 31 50 37 78 7 29 7 59 1 87-7 29-19 56-37 79-18 23-41 42-67 55-26 14-55 21-84 22-29 1-58-5-85-16-27-12-51-29-70-51-46 13-94 13-139 0-19 22-43 39-70 51-27 11-56 17-85 16-29-1-58-8-84-22-26-13-49-32-67-55-18-24-30-50-37-79-6-29-6-58 1-87 6-28 19-55 37-78 18-23 41-42 67-55-48-18-91-51-120-94-30-43-46-93-46-145v-124c0-5 2-9 6-13 3-3 8-5 13-5h138c-4-19-5-38-5-57v-114c0-5 2-10 5-13 4-4 8-6 13-6h607c5 0 9 2 13 6 3 3 5 8 5 13v114c0 19-1 38-5 57h138c5 0 10 2 13 5 4 4 6 8 6 13v124c0 52-16 103-46 145-29 43-71 76-120 94z m-90 338c42 0 82-16 112-45 30-29 48-69 49-111 1-42-14-82-42-113-28-31-67-50-109-52 6 21 9 43 9 66 0 43-12 86-35 123-23 38-56 68-95 88 30 28 70 44 111 44z m-149-69c44-16 81-46 104-87 23-40 32-87 24-133-8-46-32-88-67-118-36-30-80-47-127-47-3 0-4 0-7 0-46 1-91 18-126 48-35 31-58 72-66 118-7 46 1 93 25 133 23 40 59 70 103 86 44 16 93 16 137 0z m-447-92c0 32 9 63 26 89 18 26 42 47 71 59 29 13 61 16 92 11 31-6 60-20 83-42-39-20-72-50-95-88-23-37-35-80-35-123 0-23 3-45 9-66-41 2-79 20-107 50-29 30-44 69-44 110z m-57-416c0 29 6 57 17 84 11 27 28 51 49 71 20 20 45 36 72 47 27 11 56 16 85 15 24-48 64-87 113-110-49-16-94-44-130-81-36-36-63-81-78-131h-128v105z m720-294h-569v95c0 174 157 294 289 284 75-1 146-32 198-85 52-53 82-125 82-199v-95z m151 189h-128c-15 50-42 95-78 131-36 37-81 65-130 81 49 23 89 62 113 110 29 1 58-4 85-15 27-10 52-26 73-47 20-20 37-44 48-71 11-27 17-55 17-84v-105z" horiz-adv-x="1000" />

<glyph glyph-name="delete" unicode="&#xe81c;" d="M352 670h-8c4 0 8 4 8 8v-8h296v8c0-4 4-8 8-8h-8v-70h71v78c0 35-28 63-63 63h-312c-35 0-63-28-63-63v-78h71v70z m492-70h-688c-17 0-31-14-31-31v-31c0-5 4-8 8-8h59l24-511c2-33 29-60 62-60h444c33 0 61 26 62 60l24 511h59c5 0 8 3 8 8v31c0 17-14 31-31 31z m-130-570h-428l-24 500h476l-24-500z" horiz-adv-x="1000" />

<glyph glyph-name="filter" unicode="&#xf0b0;" d="M783 685q9-22-8-39l-275-275v-414q0-23-22-33-7-3-14-3-15 0-25 11l-143 143q-10 11-10 25v271l-275 275q-18 17-8 39 9 22 33 22h714q23 0 33-22z" horiz-adv-x="785.7" />

<glyph glyph-name="menu" unicode="&#xf0c9;" d="M857 100v-71q0-15-10-25t-26-11h-785q-15 0-25 11t-11 25v71q0 15 11 25t25 11h785q15 0 26-11t10-25z m0 286v-72q0-14-10-25t-26-10h-785q-15 0-25 10t-11 25v72q0 14 11 25t25 10h785q15 0 26-10t10-25z m0 285v-71q0-14-10-25t-26-11h-785q-15 0-25 11t-11 25v71q0 15 11 26t25 10h785q15 0 26-10t10-26z" horiz-adv-x="857.1" />

<glyph glyph-name="angle-left" unicode="&#xf104;" d="M350 546q0-7-6-12l-219-220 219-219q6-6 6-13t-6-13l-28-28q-5-5-12-5t-13 5l-260 261q-6 5-6 12t6 13l260 260q5 6 13 6t12-6l28-28q6-5 6-13z" horiz-adv-x="357.1" />

<glyph glyph-name="angle-right" unicode="&#xf105;" d="M332 314q0-7-5-12l-261-261q-5-5-12-5t-13 5l-28 28q-6 6-6 13t6 13l219 219-219 220q-6 5-6 12t6 13l28 28q5 6 13 6t12-6l261-260q5-5 5-13z" horiz-adv-x="357.1" />

<glyph glyph-name="angle-up" unicode="&#xf106;" d="M600 189q0-7-6-12l-28-28q-5-6-12-6t-13 6l-220 219-219-219q-5-6-13-6t-12 6l-28 28q-6 5-6 12t6 13l260 260q5 6 12 6t13-6l260-260q6-5 6-13z" horiz-adv-x="642.9" />

<glyph glyph-name="angle-down" unicode="&#xf107;" d="M600 439q0-7-6-12l-260-261q-5-5-13-5t-12 5l-260 261q-6 5-6 12t6 13l28 28q5 6 12 6t13-6l219-219 220 219q5 6 13 6t12-6l28-28q6-5 6-13z" horiz-adv-x="642.9" />
</font>
</defs>
</svg>
